<svg xmlns="http://www.w3.org/2000/svg" viewBox="0 0 466.53 434.86"><defs><style>.cls-1{fill:#fff;}.cls-1,.cls-2,.cls-3{fill-rule:evenodd;}.cls-2{fill:#fe0000;}</style></defs><title>Ресурс 2</title><g id="Слой_2" data-name="Слой 2"><g id="Слой_1-2" data-name="Слой 1"><g id="Layer_1"><g id="_1666483494224" data-name=" 1666483494224"><path class="cls-1" d="M31.72,235.63l.57-.73c1.58-2.5,3.77-4.34,4.87-6.38a2.77,2.77,0,0,1,2.41-1.93c1.5-.31,3.32-.76,4.62.17a118.76,118.76,0,0,0,1.56,14.06c.23,1,.28,2.27.45,3.26.23,1.16.51,2,.66,3.29.2,1.7,1.9,6.35-.29,4.54a82.54,82.54,0,0,1-8.27-7.35,40.88,40.88,0,0,1-5.16-6.49C33,237.85,31.78,235.69,31.72,235.63Zm46.71,37.93c1.17,2.47,2.78,4.88,3.38,7.43,1.42,6.29,1.7,4.82,1.67,11.31v5.84c0,5.75.4,4.53-3.12,8.59-.54.62-.82,1.07-1.3,1.59-2.35,2.49-4.54,5.38-6.75,7.82-1.27,1.39-4,5.5-5.53,6.09-1.41-.88-1.89-2-4.36-2A15.31,15.31,0,0,0,57,321c-3.18,1.53-5.11.74-8.11,1.42-1.67.4-4-.11-5.84-.23l-5.41-1c-1-.23-1.34-.42-2.64-.68-2-.37-7.91-2.58-8.82-4.11-1.92-3.26.12-2.75-6.66-2.78-1.27,0-1.87,0-2.32.91l-5.27,13.24a4,4,0,0,1-2.27-2c-.6-.91-.31-2.18-.2-3.49.34-3.65.17-6.63,1.05-10.91a11.58,11.58,0,0,0,.59-3.54,33.41,33.41,0,0,1,.2-3.8c.4-1.93,1.82-2.92-.48-4.37-.6-.36-.77-.17-1.45-.65s-.93-1.61-1.7-2.46c-2.21-2.47-1.44-2.78-2.52-6-1.13-3.34-2.27-11.7-1-15.22,4.17-.25,6.46,1.05,8.28,4.14,1.53,2.64,3,5.7,4.28,8.45.28.56.25.9.54,1.53l1.73,4.76a5.35,5.35,0,0,1,.48,1.62c.2.79.39.65.62,1.41,1.47,4.88,3.46,10.43,7.37,13.69.77.66,1.65,1,2.47,1.71,2,1.78.79,1.27,5,1.27,1.79,0,1.48.14,2.55-.62,5.08-3.57,2.7-1.39,6.61-1.14,4.14.26,6.83,1.79,11,1.79,3.23,0,3.34-.4,4.84-2.13,1.11-1.24,2.16-2.6,3.21-3.88,1.58-1.9,1.9-1.45,1.9-4.93,0-2.89.34-4-.88-6.15A15.81,15.81,0,0,0,61.26,293c-2.55-2.44-3.57-3-5.81-4.82-.88-.71-1.36-.77-2.16-1.39a30.93,30.93,0,0,0-4.36-2.72l-9-4.94c-7-3.54-15.22-8.73-20.47-14.76a33.93,33.93,0,0,1-4.47-5.9c-.37-.68-.71-1.64-1.05-2.47-.46-1-.46-1.72-.91-2.69a13.2,13.2,0,0,1-.88-2.41l.28-6.74a27.73,27.73,0,0,1,4.68-14.43c.11-.17.68-.8.88-1.05a29.49,29.49,0,0,1,7.29-6.89c2.74-1.7,5.95-3.54,10-3.83,2.38-.17,4-.54,6.41-.17.93.17,2.15.29,3.06.37,1.73.17,6.69,1.79,8.3,2.24s4,.77,5.67,1.33c1.87.63,3.86.83,5.39,1.73a24.67,24.67,0,0,0,2.38,1.16c1,.37,1.5.83,2.75.74,2.86-3.77,4-8.76,6.23-12.92.77-1.45,1.79-2.58,2.47-3.92l3.69-.08a6.09,6.09,0,0,0,.59.88,6.23,6.23,0,0,1,1.22,3.8l0,11.05a26.9,26.9,0,0,1-.59,2.92c-.15.94-.12,2-.37,3a82.23,82.23,0,0,0-2.16,11.62,22,22,0,0,1-.65,2.86c-.2,1,0,2.13-.2,3.09-.19,1.3-1.1,2.49-1.47,3.8a10.11,10.11,0,0,1-.34,1.3c-.45.82-1.81.51-2.41,0a19.07,19.07,0,0,1-3-3.88c-.22-.37-.31-.74-.56-1.13l-6.07-9.33c-.28-.42-.45-.57-.71-1a8.45,8.45,0,0,0-.65-1.19,37.69,37.69,0,0,0-6.41-7.34c-2.66-2.27-5.21-3.35-8.61-5.16-1.25-.65-.94-.6-2.7-.65-2.15-.06-4.16-1.17-6.2-.34-2.81,1.13-3.75-.29-6.33,4.08a11,11,0,0,1-1.33,2l-3.14,3.74c-2.5,3.46-2.22,2.86,1.53,8.73l4.73,5.7c1.19,1.28,2.24,2.15,3.51,3.34,2.56,2.36,4.8,4.43,8.08,5.87l3.35,1.68c.59.34.71.34,1.22.65,3.2,2,4.36,2.07,7,3.2,1.13.48,2.1.11,3.12.43,1.58.51,2.69,2,3.57,3.28,1.64,2.33,4.19,5.9,6.55,7.2S75.83,273.25,78.43,273.56Zm210.22-54.17c1.65-1.3,8.36-.68,10.86-.45,1.27.11,2.63,0,3.94.2,6,1,24.72.59,32.2.62,2.86,0,2.44.43,4.76-3.32a32.45,32.45,0,0,1,3.23-5l1.82.06c1.73,4.08,1.5,12.55,1.25,17.74-.26.65-2.19,1.3-3.18,2.86-.17.29-.17.31-.4.66-1.61,2.29-.73,1.41-1.64,3.34a3.7,3.7,0,0,0-.6,1.47c-.22,1.11-.05,1.05-1.1,1.05-.6-2.07.42-6.06-.57-7.71-1.42.23-1.3,2-2.1,2.07-1,.09-1.41-1.87-2.35-3.48-1.19-2-.51-2.39-3.48-2.36-1.85,0-10.75-.37-11.6.26-.14.14-.34,0-.14,1,.14.57.17.62.28,1.25.2,1.19.57,1.33.63,2.35-.68.71-1.19,1.19-2,1.93a14.61,14.61,0,0,0-2.1,2.06c-1,1.56-2.07,7.43-2.83,9.42-1.05,2.69-1.05,3.09-3,5.38-1,1.22.71,1,2,1.08,3.71.11,4-.37,7.11-1,4.2-.8.68.82,4.54-1.71,2.66-1.72,1.73-1,2.24-3.79l1.07-7.23c.12-1.31-.53-2.95-.05-3.86.42-.68,2.41-1.56,3.26,1.76.62,2.41.39,2.75.65,5.39a30.54,30.54,0,0,1-1,10.77c-1.17.22-2.3-.09-3.38.42a32.75,32.75,0,0,0,1.45,10.8,10.92,10.92,0,0,1,.42,2c.26,1.24,1.05,2.83.46,4.08-1.42-.43-1.65-4.06-1.73-4.48-1.19-5-1.19-3.52-3-7.57-.91-2.07-3.6-2.83-5.87-2.52-1.24.14-2.15.54-3.48.71a6.48,6.48,0,0,0-3.32,1.1c-.31,1-.31,11.42.06,12.28,1.61.85,1.36-.8,2.58-.29.45.4-.09.74.05,2.47.23,3.09.37,4.33,2,6.94s3.8,4.08,8.42,3.77c2.66-.17,2.66-.79,3.94-2.15,1-1.08,1.93-2,2.95-3.09,1.22-1.36,4.62-5.27,6-5.9l.54.63-2.9,4.56a8.67,8.67,0,0,0-1.64,6.12c1.42.06,4.05-2.55,5.07-3.54,1.73-1.64,6.81-7.65,7.32-9.75.17-.6.65-6.41,1.27-7.48l.8.11a8.76,8.76,0,0,1-.06,4.82c-.37.79-.71,1-.79,1.84a12.19,12.19,0,0,1-.12,2.83c-.25.88-.56.94-.62,2s-.09,1.95-.11,2.92c-.29,7.37,2,8.05-.74,9-1.53.54-2.69.94-4.42,1.39-2.13.57-11.4-.08-13.75.46a11.9,11.9,0,0,1-2.33.56,25.64,25.64,0,0,0-5,.74c-2.43.59-.71,1.08-4.65,1-4.19-.09-14.11.45-16.83-.48-1.79-.6-3.29-.31-5.25-.46-1.3-.05-1.27-.34-2.15-.68s-2.24-.17-2.55-.36c-.57-.4-.31-1.76,0-2.19.88-1.3,4.48-2.18,5.86-2.63a11.62,11.62,0,0,0,3.49-2.19c1.11-1.16.77-3.06.77-5,0-7.63,0-15.28,0-22.91,0-5.86-.54-3.77.2-10.82,1-10.38,2.69-11.31-4.65-16.59-.54-.39-1.11-.65-1.65-1.05C291.46,222.4,289.5,221.09,288.65,219.39Zm-156.56-4.08s.51,0,0,1.56c-1.39,4.53-3.63,5.5-7.91,7.68-3.26,1.67-2.92,1.45-3.31,5.56-.31,3.54-1.45,3.14-1.59,7.42-.08,2.24-.6,1.45-1.13,3.32-.32,1.05-.26,2.5-.54,3.74a13.85,13.85,0,0,0-.82,3.55c-.06,1.5-.09,2.94-.17,4.39s-.46,2.3-.57,3.94c-.37,4.85-.94,7.14.82,12a16.29,16.29,0,0,0,2.41,4,14.35,14.35,0,0,0,3.18,3.51,25.47,25.47,0,0,0,5.44,3.52l3.17,1.33a20.77,20.77,0,0,0,4.2.17c2.21,0,2.21.14,3.74-.77a13.37,13.37,0,0,0,4.48-4.25,16.74,16.74,0,0,0,1.53-2.92l1-3.51c.14-.51.34-1,.48-1.59s.17-1.25.34-1.93l1.11-3.46a20.15,20.15,0,0,1,1.61-2.8,5.14,5.14,0,0,1,2.44-1.9c.65,1-.17,13.41.42,17a8.19,8.19,0,0,1,1.62.66,12.2,12.2,0,0,1-1.87,7.25c-.82,1.51-1,1.53-3.2,1.51l-23.76-.2c-1.53,0-3.26-.06-4.79,0s-2.86.56-4.17.71c-3.79.45-27.46.82-28.09.19-1.39-2.89,1.82-3,3.46-3.65.57-.23.48-.37,1.3-.54,1.48-.34,6-1.82,7-2.58,1.5-1.13,3.68-5.44,4.33-7.31.34-1.05.17-2.27.68-3.07s1.42-.87,1.59-2.21V246.49c-.08-1.22-.51-2.44-1.84-2-.43,1.25-.2,11.17-.17,13.89,0,1.42.17,1.5-.88,2.58-.51.54,0,.31-.54.37-.65-.85-1.08-10.77-1.1-12.76l-.15-20.41a2.45,2.45,0,0,0-.9-2.38,9.88,9.88,0,0,0-2-1.59l-2.15-1.13a12.61,12.61,0,0,1-1.11-.6c-4-1.9-5.64-2.24-6.89-5.41-.45-1.16-.42-1.16,1.39-1.16a11.22,11.22,0,0,1,5.39,1.5c1,.45,1.07,1,2.12,1.22l17.29.06c3.26,0,2.73-1.14,4.74-2.22,1.27-.68,4.08-.56,5.81-1.07C126.79,215,131.19,214.4,132.09,215.31Zm88-1.87c1.67-.54,4,2.27,5.38,3,3.07,1.61,7,3,10.66,2.18,7.32-1.62,2.36.25,9.3.2,2.15,0,2.78.65.94,3.23-.8,1.08-1.34.91-1.36,2.78,0,1.41,0,2.75,0,4.16a19.34,19.34,0,0,0,1.9,6.64l1.36,2.77c.37.91,1,2,1.39,2.81l1.42,2.89c1.25.09,3-2.1,2.78.46v.82c.34,1.56,2.24-.71,2.49-1.05.91-1.16,1.14-3,1.79-4.51l5.47-11.05c.11-.74-.51-4.79-1-5.3s-.88-.34-1.56,0a6.59,6.59,0,0,1-1.65.65c-.68.2-.85.42-1.61.62-3.23.8-1.67-1.39-1.67-1.41.25-.66.19-1.28.42-1.88a5.25,5.25,0,0,1,2.07-2.32,3.76,3.76,0,0,1,3-1.25c3,0,18.57-.34,20.72,1.56-.62,1.79-3.77,4.14-4.87,4.59-2.72,1.11-3.91,1.28-5.64,4.17-1,1.76-1.22,1.84-2.36,4.11l-9.18,18.29c-.31.65-.31.34-.59,1.07-1.39,3.46-.86,4.76-.8,9,0,1.7-.25,15.08.17,15.9s4,1.76,4.48,2c1.76.74,5.05,2.36,5.73,4a5.31,5.31,0,0,0,1.27,2.07c1.39,1.61.17,2.38.17,2.41l-1,.14c-2,0-1.76-.51-2.07-.94-.68-1-2.18-1.05-3.74-1.05-1,0-2.13,0-3.15,0s-1.76.37-2.89.43c-4.08.22-5.27.65-8.79.79-1.44.06-1.36.46-1.75,1.56-2.13-.08-4.91-1.53-9.24-1.56-1.79,0-9.64.37-10.55-.2-1.7-1.3,1.13-4.14,4.62-5.18,1.25-.37,2.27-.12,3.26-.6,2.55-1.22,5.3-2,6.07-4.9.9-3.55.08-.66,1.7-3.75a6.34,6.34,0,0,1,.73-1.13,8.54,8.54,0,0,0,.83-6.09l-2.44-6.69c-3.77-8.76-4.22-9-8.19-15.76l-3.8-7.23c-.4-.77-1-1.7-1.36-2.41-5.84-10.77-6.13-7.14-9.24-8.9-1.87-1.05-3.66-1.31-4.65-2.87-2.87-4.62,2.07-1.89,5.33-2.94C221.22,215.25,219.66,214.52,220.14,213.44Zm-17.35,18-1.56,3.52a14.27,14.27,0,0,0,1.28,12.24,19.47,19.47,0,0,0,2.35,2.67,8.65,8.65,0,0,1,2,3c.37,1.16.49,3.4-.11,4.28s-.59.54-.62,1.87c-.06,3.29-.43,2.73,3.23,5.33,5.47,3.89,3.29,4,7.06,10.43.48.85.68,1,1.16,1.82.82,1.39,2.66,3.71,3.15,5.5,1.1,4.11,2.46,3.26,5.07,6.52-3.66,3.2-9.64.51-10.49.39-1.33-.19-1.1-.39-2-.68-1.81-.53-3.06.37-4.31,1-1.05.6-.91.32-2.18.57-.82.17-1.16.6-1.87-.06-1.31-1.16-.09-2.49-3.15-2.49-2.41,0-2.12.85-3.65,1.76a5,5,0,0,1-4.63.48c-.39-1.93,2-6.78,2.73-9.21l1.07-3.35c1-2.69,2.41-3,.74-5.53-1.59-2.32-4.37-3.45-8.05-4.28-1.67-.36-3.66-.08-5.53-.51-1-.22-1.73-.25-2.69-.42-1.33-.26-1.19-.77-2.58-.65l-3,9.07c-.7,2.86.43,2.21,2.05,3.48s2.07,1.25,4.05,2A7.92,7.92,0,0,1,183.4,283c-2.86,2.58-2.41,1.9-7,2.55-1.42.2-3,.09-4.42.32a13,13,0,0,0-1.76.53c-.71.18-1.5.12-2.21.26-2.12.48-1.44.79-3.06-.82-2-2-2.18-2.75-4.62-2.47-1.25.14-.91.34-1.39,1.14s-2.81.9-3.88.62c-.6-1.73.17-2.3,1.27-3,3.43-2.36,4.11-2.07,7.32-2.07a10.13,10.13,0,0,0,4.11-.65c2.41-.8,3.62-2.58,4.3-5.08a11,11,0,0,0,.71-3.83c-.11-5,.2-5.61-1.87-3.79-.76.65-1.47.59-2.75.53-.28-.76-.76-1.81-1-2.6-.26-1.17-.74-2.21.42-2.44l6.35-1c3.72-.66,4.68-5.25,5.42-9.22l1.61-5.61c.2-.88.26-.54.51-1.1s.17-1,.4-1.53.28-.4.6-1.25c.56-1.56,2.72-5.3,2.26-6.69a4.39,4.39,0,0,1-.7-3c0-1.41-.17-2.26.45-3.31A36.39,36.39,0,0,0,188.65,219c.59-2.58-.09-4.33-.43-6.6-.62-4.28,4.93.68,5.81,5.7a22.15,22.15,0,0,1,.71,2.75,17.46,17.46,0,0,0,.2,3.65,8.61,8.61,0,0,0,3.15,4.17c.79.48,1.33,1,2.23,1.47S202,231,202.79,231.41Zm173-30.87c.79-.34,1.11-.11,1.87.23,3.35,1.53,11.4,1.33,14.57,2.46,1.59.57,2.81.2,4.45.46,1.33.2,2,1.08,3.94.91,2.47-.2,3.55.51,5.76,1.21.65.23,1.36.2,2,.46a44.15,44.15,0,0,1,6.89,2.69,28,28,0,0,0,2.86,1.9c2.27.71,1.87-.51,3.57,1.45,1.25,1.41-.28,2.32,1.22,3.6,3.88,3.31,3.46,5.15,4.56,10.2a31.41,31.41,0,0,1,.37,9.1c-.25,3.66-2.24,7.37-4.11,10.4-.31.51-.59,1.08-.93,1.59a49.13,49.13,0,0,1-5.7,6.58c-.91.68-1.9,1.07-3,1.75-1.68,1.08-.46,2.27-2.22,2.53-3.06.42-5.5,1.75-4.42,5.13a21.67,21.67,0,0,0,1.67,3.12c1.22,2.06,4.2,7.82,5.39,9.26-1.9,1.28-2.89-1.58-4.71-1.36-1.1.12-.79,1.79-.36,2.41l1.07,1.62a43.08,43.08,0,0,0,5.36,6.75c.51.45.26.25.68.79.71.91.77.45,1.67,1,.12.14.51,3.49,2.21,3.57.26,0,3.41-1.61,4.63-1.87a20.67,20.67,0,0,0,2.18,4.28c1,1.31,1.47,2.86,2.55,4.11.59.71,1.1,1.08,1.64,1.7.85,1,0,2,2.78,3.86,7.17,4.73,7.4,2.78,12.53,3.88,1,.23,1.9.28,2.89.43a22.29,22.29,0,0,1,2.67.76c2.35.51,2.15,1.59,1.87,4.79-2,.57-13.35-.31-14.4.6-.51.45-1.31,2.8-1.7,3.48a52.46,52.46,0,0,1-6.38.06c-2.55-.45-1.39-6.09-6.78-6.43-2.09-.12-4.42-.06-6.57-.06-2.53,0-7.46.23-9.78,0s-4.62-7.46-5.33-9.41-1.7-3.83-2.3-5.81L393.39,276c-.73-1.56-1.44-3-2.15-4.54-.4-.85-3.86-8-4.76-8.42s-5.53-.42-6.16.15-.34,1-.34,2c.06,4.9-.28,35.46.12,36.23a13.45,13.45,0,0,0,3.06,1.84c1.25.51,2.72,0,4.34.68a20.89,20.89,0,0,1,3.48,1.5c.85.51,2.3,1.79,1.65,3.18l-3.23.22c-1,.06-1.93.29-2.92.31-3.18.15-6.52,0-9.56.66-1,.19-2.18.17-3.23.31s-1.93.34-2.86.48c-1.14.2-2.1.17-3.15.31l-5.53,1.22c-1.58.57-4.62.4-6.49.37-2.63,0-12,.48-13.69-.11-.48-1.71,4-4.09,5.25-4.63s3.68-1,4.81-1.38c1.76-.68,6.38-.51,7.09-1.08s.37-6.12.45-7.63.52-2,.69-3.28c.22-1.76-.15-4.17.19-5.87.2-1.14,1.53-2.5,1.17-4.93-.17-1.11-.43-2.13-.57-3.43a35,35,0,0,1-.62-3.52c-.15-2.66,0-5.64.08-8.33.17-5.47-.91-10.07-.91-15.42,0-4.34.43-12.33-.25-16.13-.91-5.13-.4-10.32-.71-15.59-.09-1.39-1.08-9.16-1.67-10.63-.37-.88-.46-.32-.51-1.59a8,8,0,0,0-.17-1.9,7.58,7.58,0,0,0-1.85-.26c-.59-.05-1.13-.28-1.84-.42-4-.74-5-.26-8.53-2.27a22.47,22.47,0,0,1-4.14-2.55c-1.87-1.76.11-1.56,1.76-1.64a27.2,27.2,0,0,1,8.13.45c1.65.28,1.22.77,3.52.77a15.14,15.14,0,0,1,7.45,1.41c4.06,1.87,6.13,2.95,10.69,2.7C377.4,204.91,374.8,202.41,375.76,200.54Zm-39.43-36.11c-.2,2.35-.23,4.7-1.53,6.8-2.52,4-5.56,8.59-9.33,11.54l-4.87,3.46c-.34.25-2.58,1.33-3.91,2.32a11.51,11.51,0,0,1-1.34.74,25,25,0,0,0-2.58,1.59c-1.36,1-1.24.87-3.17.65-2.35-.29-5.24-1.28-8.7-1.73a4.92,4.92,0,0,1-1.53-.51l-11.88-2.78c-.68-.17-.88-.34-1.53-.54s-1.11-.17-1.7-.34l-4.74-1.53c-1.21-.48-2.41-2.72-2.69-3.54-.57-1.73-.42-4.51-2.89-7.54s-2.18-.71-2.18-6.1c0-3-.12-9.72.05-12.53.12-1.58.74-1.41.88-3.2a14.3,14.3,0,0,1,1.17-5.07l3.08-7.32a28.8,28.8,0,0,1,8.45-8.19c1.84-1,3.49-1.9,5.42-2.92l8.67-3.8c1.3-.51,1.45-1,3-.25,2.18,1,6.66.51,10.45,2,.63.28,2.13,1.27,2.75,1.44,1,.26.83-.14,1.62.43,2.24,1.62,5.36,2.92,6.35,4.08l6,6.49a16.31,16.31,0,0,1,3.32,5l2.21,6.15c.62,2.58,1.19,3.6,1.3,7A68.89,68.89,0,0,1,336.33,164.43Zm-74.64,3.51c0,1.51-.25,11,.57,11.77.45.39.2.11.71.31.82.34.09-.26.71.37.4,1.3-.37,5.18.42,6s4.68-.29,5.84-.48c1.62-.26,1.17.87,1.17,2,0,2.94-4.26,1.87-8.76,1.9-3.58,0-18,1.64-20,.85a4.63,4.63,0,0,1-.93-.54l-.51-.34-.48-.43c.62-1.25,1.41-1.59,2.72-2.15a34.16,34.16,0,0,1,3.51-1.45,17.27,17.27,0,0,0,3.38-1.44c1.61-.85,2.21-.17,1.75-2.84-.25-1.36-.17-3-.39-4.39a19,19,0,0,1,.25-8.59c.37-1.73.94-1.79.68-4.37-.59-1.13-3-1.19-2.32-4a21.92,21.92,0,0,0-.2-12.36c-.45-1.22-1.87-3.74-2.86-4.14-2.64,1.22-3.55,5.84-4.74,8.31a28.35,28.35,0,0,0-1.16,3.4c-.57,2.32-2,5.75-2.49,8.33a16,16,0,0,1-.57,1.7c-.23.71-.14,1.25-.4,2l-2.75,8.28a33.64,33.64,0,0,0-1.16,3.17c-.34.94-1.11,2.32-1.42,3.2a33.33,33.33,0,0,1-2.78,6.15,10.62,10.62,0,0,1-4.39,4.51c-1.93-2.8-1.42-10.63-1.36-14.71a17.53,17.53,0,0,0-1.64-6.58c-1.14-.85-1.93,1.87-3.46,2.78a7.68,7.68,0,0,1-2.7-3.29c-.11-.37-.17-.82-.28-1.16l-2.18-5.33a5,5,0,0,0-.4-1.05l-3.57-8.7c-.2-.51-.17-.79-.4-1.27-.59-1.39-1.33-2.81-2-4.09s-2-7.51-3.91-7.59c-1.39,0-.85,2-.85,4.62-.06,10.85-.26,19.7.53,30.81.15,2.35,2.13,6.24,3.35,8a11.62,11.62,0,0,0,4.68,4c.17.08.79.34,1,.45.74.43.54-.08.68.88-1.42.71-16.73.25-20.24.25-1.11,0-2.24,0-3.35,0-1.47,0-1.9-.36-2.41-1.33a6,6,0,0,1,1.14-1.5c1.78-2.1,3.46-.85,5.78-2.33,1.73-1.1,4.48-4,4.48-6.37,0-5,.31-41.73-.17-43.63a11.27,11.27,0,0,0-2.3-4.11c-.62-.74-1-.93-2.32-.93-2.44,0-7,.53-9-.66-2.92-1.67-.66-1.64.45-1.7l2.29-.08,6,0c1.73,0,2.61.2,3.49-.85,1-1.22.4-2.16.79-3.75.23-.11.06-.11.48-.08a14.33,14.33,0,0,1,3.77,1.84c1.39.88,2.5,1.53,3.8,2.44a10.69,10.69,0,0,0,1.93,1.19c.71.4,1.16,1.22,2.27.6a11.9,11.9,0,0,0,1.39-1.73c.73-.83,1.3-.57,2.72-.57,2.64,0,2.47.54,3.91,2.66,3.94,5.73,1.73,5.16,3.4,10.38.71,2.24.31,3.8.68,6.21.17,1,.54,1.61.71,2.58a7.67,7.67,0,0,0,.91,2.6l1,2.33c.31.74.76,1.81,1.08,2.46,1.19,2.44,1.81,4.71,3,7.18.4.79.71,1.67,1.08,2.46,2.55,5.5,3.77,1.11,5.58-2.52a12.9,12.9,0,0,0,.45-1.25,6.2,6.2,0,0,0,.51-1.07c.2-.6.15-.83.37-1.37l1.45-3.74a5.25,5.25,0,0,1,.51-1.13c.23-.6.2-1,.37-1.53s.31-.4.54-1.08.11-.79.34-1.39a7,7,0,0,0,.51-1.19l1.87-6.86c.54-1.64,4.22-10.17,1.58-11.54-1.36-.7-3.48-1.16-4.76-2.12-.14-2.78.6-2,3.6-2.16,2.7-.08,3.26.77,5.19.88,1,.06,2,0,2.92.09,1.3.06,1.22.54,2.32.74,1.42.28,3.35-.63,5.39-.63,5.64,0,5.19-1,10.83-1a33.33,33.33,0,0,1,4.36.05.4.4,0,0,1,.2,0l.37.09.17,0c.34,1.37-2.78,3.29-4.14,3.77-.42.15-.82.17-1.3.37a16.17,16.17,0,0,0-2.27,1c-1.08.83-1.56,3-1.93,4.71l-1.41,5.24A48,48,0,0,0,262,154.85C262,159.33,261.69,163.66,261.69,167.94ZM121.63,126.76c1.31-.88,13.61-.43,16.39-.43,4,0,20.83-.4,24,.34a23.19,23.19,0,0,0,7.23.45l4.67-8.19a3.77,3.77,0,0,1,1.39.06c1,.17.91,0,1.33.54s.37,16.5,0,17.12c-.68,1.1-2.35.37-3.77,4.34-.17.48-.17.82-.37,1.33-1,2.63-.45,2-1.36,2.24-.34-1.5.34-6-.54-6.78-1.24-.79-1.33.94-3.34,1.05-.57-1.13-1.25-2.46-1.73-3.68-.71-1.76-.4-1.56-3.86-1.56-2.29,0-9-.26-10.65.17-.46,1.73.56,2.92.54,4.73a35,35,0,0,0-3.49,3.35c-1.65,1.64-1,2.77-1.65,5.24s-.7,4.9-2.49,7.68c-.57.88-1.22,1-1.19,2.36a9.49,9.49,0,0,0,5.64-.15c3.6-1.56,10,2.5,10-10.26,0-1.93-.52-4.85.45-6.12l2.38-.14a10.29,10.29,0,0,1,1,4.39,16.69,16.69,0,0,0,.4,2c.48,2.66-.14,10-1.59,11.28-1.1-.4-1.05-1.48-2.41-.06-1.56,1.62.26,4.88.34,6.15s-.22,2,.31,2.81c1.45,2.15,1,1.1,1.9,4.16.31,1,.17,2.9.46,4.12,0,0,.17.65.17.65a.44.44,0,0,0,0,.17s0,.14,0,.17l-1.11.54c-2.32-5.56-1.76-9.44-3.85-12.79l-2-2.21c-1.79-1.7-3-1.39-6.63-.62-1.42.28-2.72.08-4,.42-.65,1.53-.37,4.14-.37,6.13s-.37,4.84.34,6.17c1.19.17.48-.53,2.1-.22.31,1.42-.23,3.6.22,5.16l2.92,5.44a5.47,5.47,0,0,0,3.43,2.24c1.22.11,4.4.28,5.25-.43L162.4,182l2.8-2.84c1.93-1.93,2.24-2.75,2.89-2.1.94,1-1.27,3.38-1.81,4.26-1.39,2.24-1.87,3.06-1.47,5.1,1.61.4,2.43-.85,4.56-2.86,3.12-3,5.44-5.53,7.23-9.42,1.1-2.35.71-6.12.85-7.59.71-.51.85-.77,2-.37.4.93-.36,4.08-.68,5.27-.22,1-.11,2-.34,3-.59,2.86-2.35,8.56-1.21,11.68a4.46,4.46,0,0,1,.53,2.66c-2.94,1.73-4.42,1-8.36,1.82-5.41,1-8.93-.57-14.4,1a19,19,0,0,1-1.84.62c-6.46,1.33-8,.42-13.44.65-3.09.12-4.59.63-8-.2-2.75-.62-7.85-.34-10-2.38,1-2.21,3.49-2.69,4.82-3.2a30.65,30.65,0,0,0,3.06-1.11c1.34-.65,1.71-.88,1.71-2.58,0-1.5-.34-37.19.25-38.6.48-1.17,2.16-1.48,1.47-7.2-.31-2.5-4.05-5.73-6.32-6.92A9.51,9.51,0,0,1,124,128.8,18.45,18.45,0,0,1,121.63,126.76ZM398,123.5c.31.53.85,1.24,1.16,1.75,1.2,2,4.23,7.32,5.14,9.41.51,1.14,1,1,.51,1.76-.54-.37-.23-.2-.66-.73A32.27,32.27,0,0,1,402,132l-1-1.93a7.23,7.23,0,0,0-.49-1c-.51-.77-.9-1.11-1.22-1.67l-3.4-5.39c-1.5-2.27-3.34-4.51-4.87-6.8-1.62-2.47-4.71-5.16-3.63-7.15.57.23.25.17.54.63Zm20.55-29.26-.87,12.42c-.46,3,.08,6.26-.83,9.21-.73,2.41-.11,7-.31,9.78-.17,2.24-.74,3.23-.82,5.64-.14,4.54-.09,8.82,0,13.32.09,7.74-.65,23.08.14,29.8.12,1,.51,1.5.6,2.72a19.39,19.39,0,0,0,1.47,5.19,23.56,23.56,0,0,0,4.42,7.28c.54.6.63.23.43.88l-.68.2a9.83,9.83,0,0,1-3.86-1.16c-.82-.46-.56-.49-1.87-.4a7.59,7.59,0,0,1-1.92,2.21,9.5,9.5,0,0,1-3.52.51c-.54-1.13-.23-2-.65-3.26a13.36,13.36,0,0,1-.4-1.47c-.25-1.19-.31-.68-.62-1.54-1.5-4.22.34-2.12-2.78-5.13-1.87-1.81-3.15-4.76-4.59-7.25-.6-1-1.11-1.65-1.53-2.41-1.93-3.46-3.91-6.49-6.07-9.81l-13.44-18.42c-3.31-4.12-5.78-6.58-9.38-10.41-3.17-3.34-6.35-7-10.12-9.66-1.5-1-2.75-2.7-4.79-2.22-1.7.4-1.67,3-1.76,4.57l-.62,4.79c0,2.24.71,2.18-.2,4.53-1.1,2.92-.22,6.44-1.07,9.61s-.43,6.89-.63,10.24c-.08,1.73-.51,3.29-.65,4.79-.17,2,.08,9.07-.43,10.12-1.33,2.78-.39,6.38.94,8.61,2,3.43,6.41,7.8,10.6,8.17a8.21,8.21,0,0,1,2.47.23c0,.65-1.39,2.4-1.82,3.06-1.44.11-2.92,0-4.39,0-2.1,0-2.3.42-3.83.73-2.32.46-14.74.26-18,.26-2.26,0-7.2.48-8.64-.45,0-1.59,2-2.5,3.17-3.29,3.52-2.38,8.76-5.84,11.14-9a22.67,22.67,0,0,0,3.89-7.76,11.53,11.53,0,0,1,.45-1.16c.45-1.42.17-46.86.17-53.64,0-3.06.34-3.43-1.1-5.52-1-1.39-3.46-2.7-5-3.52l-3.35-1.7a11,11,0,0,1-1.13-.51,6,6,0,0,0-1.14-.54c-1.75-.82-6.74-3.34-7-4.65a2.29,2.29,0,0,1,.11-1.56c.48-.62,7.94-1.07,9-1.3,2.33-.48,16.64-1.93,17.69-2.47,4.11-2.07,4.88-3.48,9.95-1.39.94.4.37.15,1.05.63,2.44,1.7,5.47,2.35,7.94,3.91a7.25,7.25,0,0,0,2.41,1c1.81.34,1,.29,1.67,1.62,1.67,3.09,5.78.4,5.21,8.16-.19,2.64-2.38,1.36-3.71,3.09.2,1.42,2.81,3.26,3.77,4.51.31.43.43.85.77,1.33l5,7.68c.37.54.51.91.85,1.42,1.73,2.64,5.47,8.11,6.72,10.38a71,71,0,0,0,7.12,10c1,1.14,3,3.83,4.65,3.83,1.24-1.67.76-5.81.76-8.28,0-3.09.31-16.69-.11-18.62-.37-1.67-.23-2.1-1.19-3.32a1.91,1.91,0,0,1-.71-1.58,23.82,23.82,0,0,1,0-2.53c.25-6.57,3.23-6.8,1.75-11.16a17.82,17.82,0,0,0-1.16-3.6,3.06,3.06,0,0,0-3.2-1.14c-1.36.48-2,3.23-2.35,4.68-.17.74-.4,1-.6,1.7a16.42,16.42,0,0,1-1.27,3.51c-.85-.45-.32,0-.68-1.1a29.91,29.91,0,0,1-1.93-10.8c.08-4.62,2.72-2.86,6.72-4.14a23.91,23.91,0,0,1,3.28-.42,26,26,0,0,1,2.95-.63c4.42-.34,5.1-2.92,7.68-3.06,3.15-.2,10.27.4,13,1.47a5.08,5.08,0,0,1-1.21,3.58c-1,1.36-1,1.44-3.46,1.27C425,94.61,420.38,93.48,418.56,94.24Zm-387,5.56c-.42-2.55-1.84-7.2-3.4-9.38-3.43.17-.88,3-3.6,4C23.33,92.23,18,85.85,17,81.26c-.4-1.73.65-1.22,2.1-1.19s5.27-.31,6.57.28c1.08.48.66.63,2.38.63,2,0,4,0,6.07,0a49.34,49.34,0,0,1,5.22.73c1.78.17,4.11,0,5.81.2s0,.71,5.41.71a40.53,40.53,0,0,1,5.87.11,9.58,9.58,0,0,0,2.44.6c10.77.71,5.5.59,16.47.42,2.83,0,8.59-.48,9.61,1.51.53,1-.06,1.44-.49,1.87,1.14,1,.66.68,2.39,1.16a6.31,6.31,0,0,1,2.09,1.47,25.17,25.17,0,0,0,5.84,3.09l2.81,1a8.22,8.22,0,0,1,1.27.34c1.85.83,5.22,1.76,6.61,2.36a9.82,9.82,0,0,1,5.64,6.86c.48,2,3,8.7,3.29,10.94.17,1.08.62,1.93.76,3a10.62,10.62,0,0,0,.49,3,9.89,9.89,0,0,1,1.07,2.44c.17,1.1,0,2.29.2,3.37a5.77,5.77,0,0,0,.57,1.27,40.2,40.2,0,0,1,.62,4.57c.34,2.1,1,4.05,1.16,6,.17,2.52.32,12.08-.11,14.2-.82,4-3.51,5.44-6.49,6.8l-.57.34c-.45.77.26,1.2.71,2,1.47,2.58.91,2,.06,4a7.4,7.4,0,0,1-.43,1,4.4,4.4,0,0,0-.45.82l-2.72,5.61c-1.62,3.12-7.57,15-8,17l-5.45,1.78c-2.52.54-9.78,3.12-11.28,3.29a11.34,11.34,0,0,0-2.86.91c-1,.48-.85.88-2.07,1.53-2.18,1.19-2.47,1.87-5.36.85-2.44-.88-2.24-2.67-4.9-2.47-3.4.26-4,4-10.4,4H17.83c-2.1,0-2.24.25-3.26-1a7.35,7.35,0,0,1-1.42-2.67c1.76-1.55,1-.65,3.12-1.53,1.79-.7,4.9-1.16,5.9-1.47l5-2.07c3.31-1.76,1.95-2.24,3.26-6.29.59-1.79.25-7,.34-9.27.05-1.56.54-2.38.71-4.06.08-.76,0-1.58.14-2.35.79-5.27.28-6.26.39-11.48l.46-9.1a82.79,82.79,0,0,0,.62-12.55c0-9.78.54-24.52-.88-33.51C32,101.19,31.63,100.59,31.52,99.8ZM199.25,42c1.87-.11,1.3.17,1.47.37a3.47,3.47,0,0,1-2.95.23C198.14,42,198.28,42,199.25,42Zm79-.91c-.63-.22-.29-.14-.65-.56a5.11,5.11,0,0,1,1.81-.15c1.76,0,1.3.15,1.59.68A7.27,7.27,0,0,1,278.28,41.09Zm-4.59-.82c-.6-.2-.32-.14-.63-.54a4.08,4.08,0,0,1,1.79-.14c1.84.09,1.36.31,1.5.48-.4.26.34,0-.48.26Zm-6.41-1c-.37-.17-.2-.14-.43-.34a6.06,6.06,0,0,1,2.36-.23c1.87.06,1.64-.06,2.21.62l-3.6.09C267.34,39.39,267.7,39.51,267.28,39.31Zm9.86-.65c-.82-.2-.51-.29-.68-.54.4-.34,3.06-.2,3.18-.17,1.07.25.45.22.71.59A9.62,9.62,0,0,1,277.14,38.66Zm-2.29-1.08a4.56,4.56,0,0,1-3.29-.06C271.67,36.93,274.17,37.07,274.85,37.58Zm-19-1.84c2.13-.12,5.33-.71,7,.25C261.21,36.27,257.13,36.59,255.88,35.74Zm-165.26,51-.34-.2-.22-.17-.17-.25-.23-.2-.26-.14-.22-.2-.12-.28c-1-.71-.45-.63-1.07-1.65-2.13-3.54-3.74-2-3.86-3.66-.71-.51-.22-.51-.59-1.53l-5,.06c-1,2.1,1,1.62-7.37,1.7-3,0-6.18.09-9.13-.08s-4.93-.94-8.16-.94c-1.53,0-3.06.06-4.59,0-1.9-.06-2.21-.65-3.55-.79s-3.09,0-4.56-.06c-1.28-.11-2.61-.4-4-.57-3.09-.39-5.72-.17-8.9-.28-1.75-.06-.59-1.25-8.1-1a26.41,26.41,0,0,1-6.89-1c-1.62-.09-.82,1.16-.4,3.48a31.25,31.25,0,0,0,3.35,9.19l6.6,10c3.29.12,2.89-.68,4.31-.93,1,1.64.93,3.12,1.27,4.31,1,3.4.43,4.87,1,8.16s.11,10.91.08,14.71c0,4.88.17,9.89,0,14.8-.05,1.19-.28,1.87-.31,3.32l-.4,10.82c0,1.17-.31,2.19-.37,3.32-.19,4.17.34,10.18-.45,14.31a12.67,12.67,0,0,0-.54,3.21c-.05,2.35,0,4.82-.17,7.08a11,11,0,0,1-.59,3.15c-.26,1.36,0,2.1-.8,2.95a2,2,0,0,1-1.1.74c-6,2.55-10.06,2.09-15,5.21-.11,2.16-.31,3.6.51,4.93.66,1.08,2.5,4.37,3.66,4.6l8.14,0c2.24,0,20.72-.31,21.29.2.48.34.34.17.34,1.08l-.06,4.39c0,2.81.62,5.39-.74,5.64l-2.49,0a26.1,26.1,0,0,0-13.07,2.58,32.45,32.45,0,0,0-15.53,15.73,11.81,11.81,0,0,0-.57,1.08L9.41,239.6c-.11,1.14-.28,1.79-.4,2.72-.34,2.64-.11,6-.34,9.05-.11,1.58.23,1.36.71,2.29l1.68,4.54c.9,3.17,5.78,8.67,8,10.83a36.9,36.9,0,0,0,3.29,3l16.27,10.43c.4.2.51.29.91.52,1.87,1.13,3.88,1.95,6.06,3.31l4,2.27a74.09,74.09,0,0,1,7.28,5.16A20.25,20.25,0,0,1,60,296.78a5.64,5.64,0,0,1,1.47,4.68c0,3.68.4,2.69-1.39,4.79-2,2.38-3,4.39-5,4.39l-5.3-1a9.08,9.08,0,0,0-2.6-.48,13.17,13.17,0,0,0-1.54-.51,7.68,7.68,0,0,1-2-.32l-.22-.19c-1-.4-1.48-1.14-1.88-1.22-.85-.12-4.08,2.38-4.93,2.92-2.95,1.95-4.79-.17-5.55-.63a11.28,11.28,0,0,1-5.25-6.15l-2.18-5.55c-.2-.54-.2-.94-.43-1.45l-2.38-7c-1.81-4.23-4.82-11.85-8.27-14.69-3.8-3.06-5.13-2.52-9.13-2.55-1.39,0-2.41-.14-2.78,1-.17.56-.68,6.2-.68,7A50.68,50.68,0,0,0,.62,287c.17,1.27.57,1.9.74,2.95.6,3.2,1.36,6.06,3.12,8.42,1.3,1.72.82,1.58,1.42,2.35a7.92,7.92,0,0,0,2,1.67A59.38,59.38,0,0,1,7,311.52,57.4,57.4,0,0,0,6,320.62c-.25,5.87-1.41,4.67,1.48,7.91l5,5.27c1.47-.37.93-1.14,1.64-2.38l5.1-12.19a7,7,0,0,1,.46-1.45c.45-.68,2.18-.79,2.92-.37,1,.51.56,1.48,1.5,2.22,1.56,1.24,4.82,2.46,6.57,3.23.51.22.85.25,1.45.45a27,27,0,0,0,6.21,1.53c1.33.2,1.95.54,3.09.65a37.57,37.57,0,0,1,6.63,1c-.48,1-3.06,2.07-1.76,3.41.57.36,1.25-.37,1.62-.74l3.51-3.66,2.47.14,2.52-.48c.77-.85,5.47-1.95,7-1.1,1.14.62,3.15,2.83,3.72,2.92.79.14.88-.4,1.33-.74a52.23,52.23,0,0,1,3.43-4.14c.6-.68,1.16-1.28,1.76-2,.37-.42.51-.65.85-1,.65-.77.9-1.25,1.78-.4l11.06,14.71c3.37,4.22,9.15,10.43,12.84,14.06l9.38,8.67,5.56,3.66a97.43,97.43,0,0,0,11.82,8l10.74,6.32a109.21,109.21,0,0,0,10.35,5.1c3,1.25,7.6,3.54,10.57,4.56,2.18.74,4.79,2,7,2.53l9.49,3c2,.85,7.23,1.73,9.73,2.5.9.28,1.7.2,2.58.39a10.78,10.78,0,0,0,2.4.66l16.22,2.43c3.91.26,7.43.77,11.45.83,7.88.14,16.13.36,23.95-.12,6-.37,9.47-.73,14.15-4.5,1.27-1,2.12-3.15,2.8-3.49.91-.43,5.87,0,7.63-.14a15.4,15.4,0,0,0,2.13-.54c2-.4,1.7,0,4.39-.74.76-.23,1.39-.17,2.15-.37l9.95-3.23c1.59-.62,6-2.83,7.52-3.06a5,5,0,0,0,4.47,3.86c2.3.11,4.11-2.24,5.08-3.26s7.17-8.23,8.05-8.71c1,.31.57.51,1.67.68,2-2.07,1-3.57,8.67-8.36.6-.37,1.28-.88,1.76-1.16,4-2.5,8.28-4.93,11.54-8.48,1.67-1.84,1.53-2.35,2.38-3.4,1.67.26,1,1.7,2.3,2.75,1.1-.2,2.94-2.78,3.85-3.71,5-5.3,10.4-10.15,14.88-15.93.54-.71,1-1.51,1.56-2.19l5.16-8.39c.57-1.3.8-3.14,1.42-4.28,1.36,1.45,2.55,3.12,4.7,1.22,1.34-1.16,2.56-2.41,3.83-3.65.79-.77,3.09-3.15,4-3.49,2.07-.82,11.68-.91,14.34-.94,2.47,0,3.54-.93,5-2.72,1.08-1.33-.59-3.48-1.3-4.84-.91-1.68-3.12-2.33-4.34-3.43.11-1.42,1.3-1.82,2.35-2.47.51-.34,1-.77,1.34-1,1-.57,1.1,0,1.21-1.37a1.63,1.63,0,0,0-.45-.25c-1-.43-1.9-.54-2.89-1-.51-.26-.23-.06-.54-.37l1.84-1.59a8,8,0,0,1,2-1.36,28.51,28.51,0,0,1,2.07,5c1,2.35,4,10.72,5,12.05a22.05,22.05,0,0,0,3,3.85c.56.49,1.16.34,2.12.34,1.7,0,3.38,0,5.08,0,2.26,0,4.53,0,6.8,0,9.13,0,4.19.77,8.67,5.3,2.38,2.39,3,.46,5.73,1.37.06,0,.11,0,.14,0l4.22-.06c2.19,0,1.9-.88,2.39-1.87.17-.4.22-.48.48-1a1.66,1.66,0,0,1,.45-.71c.77-.65,8.87-.34,10.4-.34,2,0,5.05.43,5.28-.74,0-.05,0-.11,0-.2l0-1.87v-2.49c0-1.42.29-3.6-.19-4.71s-9-3.14-10.32-3.23c-1.08-.05-3.09.26-3.74-.48a15.22,15.22,0,0,1-3.46-.45c-.4-.14-2.24-1-2.67-1.28-4.25-2.49-.79-2.83-3.57-4.34a5.14,5.14,0,0,1-1.87-2.09c-1.47-2.87-2.72-4.43-4.14-7.88a16.74,16.74,0,0,0-1.13-2.24c-1.53.08-1.56.28-3.32,1.13-.65.34-.31.4-1.1.54-.46-.88.08-1.67-1-2.13s-1.5.23-2.6-.71c-.77-.62-2.81-2.52-3-3.37,4.48-2.75,3.74-2.15-.74-10l-4.08-7.11c.94-1.79,4.08-.11,5.7-.51.51-1.53-.51-2.13,0-3.49l1.59-.93a19.68,19.68,0,0,0,1.78-.91c.79-.62.09-.88,2.21-3a17.77,17.77,0,0,0,2.41-2.78,26.94,26.94,0,0,1,2.18-3l2.78-5.73c1.48-3.43,2.7-8.7,2.1-12.44-.28-1.65-.48-3.09-.74-4.91a18.35,18.35,0,0,0-4.39-10.23c-.79-.85-.48-1-.57-2.41L424,209.73c-.51-.51-1.47-1.73-2.21-1.93-1.95-.57-1.44.51-3.28-.88a17.94,17.94,0,0,0-2.58-1.59c-.49-.25-1-.51-1.39-.65L410,203c-.59-.23-1.13-.17-1.75-.37l-3.89-1.33c-.9-.37-.28.25-.79-.51-.34-.88-.34-4.4.23-5.14,1.05.91.42,1.79,2.6,1.68.88-.77.8-1,1.48-2,1.36-.22,4,.34,5.84,0,.93-.19.76-.45,1.76-.56a9.76,9.76,0,0,0,.39,1.1c1.14,2.07.51,1.93,1.67,2.64.74-.37.15-.34,1.05-.57a10,10,0,0,0,1.45-.22c.06-1.48-.54-2.13-.2-3.75,1.16-.08,1.39.32,2.5.46,1,.14,1.89.2,2.86.25l.65.14.45.17,2,.37,2.49.26,1.48.25c.14-1.41-.17-.93-.86-1.9-.65-.36-4.39-4.42-5.24-5.33a22.66,22.66,0,0,1-4.34-6.26,21.85,21.85,0,0,1-2.26-8.28,150.53,150.53,0,0,1-.43-20.58,73.86,73.86,0,0,0,.23-10.31c-.63-7.88,0-8.11.31-14.86.11-1.93.59-1.25.76-4.68l-.08-5.55.08-2c.17-1.84,1-1,.71-3.83-.34-3.85.71-9.5.94-13.61l.2-.73,1.1,0a40,40,0,0,1,4.68.34,18,18,0,0,0,2.15.34c1.11-.12.57-.57,1.68-.83.56-2,3.26-3,3.26-7.14,0-1.44-.17-3.66-1.28-4.08l-4.08-.94c-1.56,0-2.61-.51-4.14-.56s-8.36-.26-9.41.14l-2.75,1.84-.17.17-.74.23c-.9.71-4.62.82-6,1.22a14.79,14.79,0,0,1-3.11.48c-1.22.14-1.76.51-2.89.68l-1.31.08a4.89,4.89,0,0,0-2.55,1c-1.56,2.72-2.13.14-2.15,6.23a37.49,37.49,0,0,0,1.73,10.63l1.67,4.65c.17.6.39.74.59,1.45a6.23,6.23,0,0,0,1.28,2.63c1.22-.53.82-.79,1.44-1.89a63.94,63.94,0,0,0,3.43-6.27c.68.88-.17,1.67-.31,2.55-.31,1.82-.68,8.05.31,9.07.83.85,1.11.85,1.19,2.38.15,2.27.29,8.2-.11,9.93-1.05-.4-.37.08-.93-1.17a49.4,49.4,0,0,0-5.08-7.85c-.51-.59-.93-1.59-1.47-2.27s-1.45-1.19-1.93-1.81L388.94,108a4.39,4.39,0,0,0-.76-1.13c-2.3-2.47.05-3.32-2.33-6.84-1.3-1.87-1.76-2.35-4.34-3l.32-2.78a16.59,16.59,0,0,0-3.69-.93c-1.76-.17-1.87-.8-2.8-1.73-1.54-1.59-2.92-2.92-4.51-4.45S367.63,84.41,366,83c-1-.88-4.17-3.46-5.44-3.69.2,1.22-.2.17.59,1l8,7.2c.91.88,2.3,1.82,2.67,3A4.3,4.3,0,0,1,368.79,89a131,131,0,0,0-11.2-10.66c-2.75-2.21-2.49-3-4.11-4.45a9.75,9.75,0,0,0-1.36-1A11.13,11.13,0,0,1,351,72c-1.53-1.22-3.63-2.33-5.22-3.52a91.83,91.83,0,0,0-8-5.13L335,61.79c-2.61-1.82-11.37-6.07-14.26-7.4l-6.09-2.64a30.4,30.4,0,0,1-3.12-1.27c-.65-.32-.85-.26-1.53-.54L298.69,46a13.1,13.1,0,0,1-1.53-.54l-5.08-1.39c-1.08-.45-2.32-.51-3.46-.94-1.36-.51-2-.17-3.51-.85a14,14,0,0,0-2.75-.36c-1.16-.29-.31,0-.74-.4.29-.26,0-.12.51-.29l1.67,0a6.25,6.25,0,0,1,1.82.42c1.3.46,2.64.23,3.68.66,1.34.51,2.64.25,3.72.65,1.56.56,1.81.39,3.6.39l-5.36-1.92a18.27,18.27,0,0,1-2.21-.34c-2-.77-2.61-.49-3.94-1s-3.37-.29-4.11-1c.06,0,.11-.08.17-.08l.54-.23c1.64-.37,3.31.37,4.76.57a18.92,18.92,0,0,1,2.64.23,6.39,6.39,0,0,0,2.29.45c-.51-.82-1.36-.85-2.61-1.11-1.84-.36-4.45-1.41-6.26-1.64a9.76,9.76,0,0,1-3.18-.6,29,29,0,0,0-3.51-.45,137.65,137.65,0,0,0-17-2.21,53.05,53.05,0,0,1-7.08-.48,49.48,49.48,0,0,0-7.49-.2c-1.33,0-2.66,0-4,.06a4.25,4.25,0,0,0-2.29.48l-.28.28c3.28.48,13.63.34,15.22.85-.48.68.54.2-.77.6-1,.34-3.37,0-4.59.05a1.31,1.31,0,0,0-1.33.57,51.57,51.57,0,0,0,10.09.94c1.84,0,2.8.48,4.65.68,1.16.14,2.63,0,3.85.25l.94.46c-2.35.9-6.58-.34-8.19-.4-2.81-.14-5.67-.2-8.54-.2-5.72,0-11.45.11-17.09.17-3.12,0-20,2-23.44,2.95-1.31.39-2.35,0-3.72.59-.87.37-2.8.74-3.71.15.43-.6,1.22-.54,1.93-.63,1.39-.17.88-.25,1.76-.57a16.44,16.44,0,0,1,2.18-.34,12.64,12.64,0,0,0,1.67-.53,18,18,0,0,1,2.3-.26,11.07,11.07,0,0,0,1.78-.48c1.36-.34,2.72-.26,4.17-.65l8.42-1.19a39.27,39.27,0,0,0,4.53-.26c1-.14,3-.08,3.63-1-2.15-.71-6.43.11-8.25-.51.23-.91.54-1,1.53-1a5.64,5.64,0,0,0,2-.14c-1.59-.68-4.54.34-5.73-.62.74-.77,7.77-2.27,8.36-4.51-.14-1-.22-.9-1.33-1.13-1.42-.34-3.46.17-5.84.17-2.92,0-5.13.42-7.82.65-1.42.26-2.81.17-4.2.45a22.32,22.32,0,0,1-3.8.63c-1.5.14-2.26.59-3.6.73a15.74,15.74,0,0,0-2,.26,9.16,9.16,0,0,1-1.76.51c-.62.14-1.27.09-1.92.26s-.91.36-1.59.51a19.74,19.74,0,0,0-2,.31c-.53.14-.93.37-1.58.51s-1.25.14-1.9.34a6.92,6.92,0,0,1-1.59.51l-13,4a17,17,0,0,1-3.26,1c-1.5.51-3.8,1.44-5.3,2.12l-13.78,6.18a1.16,1.16,0,0,1-.25.2c-.6.34-.6.37-1.25,0l1.5-1c1.9-1.36,15.17-7.43,17.38-8.25a9.11,9.11,0,0,0,1.81-.68c.68-.34,1-.28,1.65-.62l3.31-1.31a14.4,14.4,0,0,0,1.93-.73c1-.35,1.16-.57,1.9-.83,3-1,7.63-3.29,11.54-4.7l4.22-1.25a4.32,4.32,0,0,1,2-.62c1.39-.2,1.13-.4,2.07-.68s1.64-.09,2.41-.37a5.44,5.44,0,0,1,2-.68c1.27-.17,1.19,0,2.1-.57,1.16-.79,1,0,1.92-.59l-1-.15c-2.21.12-3,.54-5.24.71a6.51,6.51,0,0,0-2.21.6c-.8.22-1.62.17-2.33.34a12.32,12.32,0,0,1-2.35.62l-15.31,4.22-20.38,8c-1.16.37-.82.45-2.13.82a14.76,14.76,0,0,0-1.87.79,20.12,20.12,0,0,0-2.92,1.45l-17.8,9L127.5,57.48a10.84,10.84,0,0,0-1.59,1.1L111.43,69.75c-.48.45-.88.77-1.42,1.25-1.05.93-2,1.73-3,2.61-4.25,3.6-10,9.78-14.09,14C91.33,87.58,91.76,87.35,90.62,86.73Z"/><path class="cls-2" d="M434.41,320c-2.72-.91-3.35,1-5.73-1.37-4.48-4.53.46-5.3-8.67-5.3-2.27,0-4.54,0-6.8,0l.42.46c-.57,2.44-.34,4.08-1.5,6.32a14,14,0,0,1-3.46,3.94c-1.39-1.42.23-4.39-.48-5.93-1.05.43-1.45,2.3-2.33,3a17.25,17.25,0,0,1-3.14,1.87,13,13,0,0,0-3.18,2c-2,1.76-1.47,2.24-2.52,2.61-1.13-2.27-.68-5.5-1.33-7-1.25-.06-.91-.06-1.56,1.05-.31.51-.51.91-.85,1.42-1.25,1.81-2.33,4-3.83,5.55-2.69,2.78-2.89,1.73-4.39.23-1.22,1-.68,1.33-1.16,3a24.81,24.81,0,0,1-2.61,5.75c-1.05,1.56-2,3.52-3.29,5-.71.82-1.16,1.5-1.81,2.35l-3.89,4.48c-4.53,5.07-9.95,9.81-14.23,14.91-.88,1.05-.76,1.7-2.27,1.76-1-2.5-.73-3.26-2.4-3.29-.54,1.56,0,.82-1,2.15a29,29,0,0,1-8.16,7.43c-2.53,1.64-5.1,3.09-7.46,4.82l-3.6,2.44a18.57,18.57,0,0,0-3.31,2.94,19.78,19.78,0,0,0-2.36,3.6c-2.86-.53-1.1-1.78-4.36,1.79l-6.32,6.78c-1.73,1.84-2.67,3.48-5.59,3.34-3.17-.14-3.29-2.24-4.67-4a15.38,15.38,0,0,0-2.16.94c-3,1.61-12.93,4.93-16.67,6-.76.23-1.56.17-2.35.4-1.7.51-3.06.48-4.73.88-2.92.65-8.9,0-10.63.56-.71.54-.37.63-.77,1.39a10.41,10.41,0,0,1-4.11,4c-5.84,3.4-5.72,2.18-10.69,3-5.38.85-18,.51-23.58.46-2.58,0-5.16-.06-7.71-.23s-4.73-.57-7.29-.65c-2.18-.06-4.47-.63-7.31-.8l-24.77-5a7.71,7.71,0,0,1-1.36-.51l-4.85-1.24c-2.86-1.19-7.57-2.24-10.23-3.52l-2.87-1.08c-5.38-1.78-10.29-4.48-15.5-6.57-.77-.31-.63-.37-1.25-.65-1.87-.86-3.57-1.88-5.3-2.61A48.33,48.33,0,0,1,137.4,386c-1-.56-1.62-.85-2.58-1.36l-4.88-3c-2.89-1.87-5.78-3.49-8.45-5.5-2-1.5-4-2.64-5.84-4.2-.88-.68-1.41-1.07-2.29-1.64s-1.42-1.19-2.21-1.76c-.46-.34-.77-.48-1.28-.82l-11.73-9.92c-2.7-2.52-3.58-3-7.23-4.62l-4.06-2c-.73-.43-.28-.43-1.61-.4a7.61,7.61,0,0,0,2.44,2.52c1.92,1.45,14.06,11.71,16.18,13.78.37.37,1.08.93.65,1.33-.73.28-3-1.33-3.71-1.78-1.08-.68-2.38-1.54-3.37-2.27s-2.3-1.65-3.32-2.5l-6.38-5.1c-1.22-.91-1.87-1.59-3.06-2.55l-6.07-5.39c-2-1.87-4-3.65-6-5.47s-4.28-3.74-5.89-5.55c-.85-1-1.73-2.07-2.61-3.23l-6.66-7.71c-.71-.71-1-.51-1.11-1.65l-2.52.48c1.08,3.52,3.37,2,3.71,11.2.15,3.69.32,6.94.8,10.54a6.65,6.65,0,0,0,.34,1.54,3.53,3.53,0,0,0,.37.68c.34.45.17.22.45.42l.42-.88c.34-2,.06-5,1.08-6.57,1,.19,3.89,3.2,4.54,4.05a23.57,23.57,0,0,1,3.14,5.61,17.27,17.27,0,0,0,8.25,8.19c.14.06.31.15.46.2s.11.14.11.09.11,0,.14.11c-1.25,1.62-6.29.51-7.34,2.5,5.56,1.81,8.19,6.8,11,11.45,1,1.56,1.56,3.37,2.58,4.93.06-.26.09.2-.08-.28s-.09,0-.09-.2c1.22,1.87-.28,1.33,1.28,1.93,1.13-2.22-.11-6.21,2.15-8,1.9.28,2.3,2.24,3.15,3.63.31.54.54,1,.85,1.44,2.52,3.77,5.73,8.54,7.57,12.65l2.07,4.39s.08.09.11.11c.68-1,.2-2.72.68-3.68l2.81,2.69c1,.82,2.07,1.67,3.17,2.44,2.19,1.53,4.31,3.06,6.49,4.51,1.59,1.05,10.1,5.81,6.84,8.16-.8.6-2.56.77-3.75,1.64,3.21,1.25,9.47-.79,12.65,2.36-.63.85-3.89,1.73-5.19,2.24a3.69,3.69,0,0,0-.82.39c-.68.46-.29,0-.65.68.45.46.17.26.85.49a6.44,6.44,0,0,1,.93.28,8.35,8.35,0,0,0,1.76.54c2.55.54,4.85,1.61,7.34,2.29,4,1.11,11.88,4,14.6,6.81,2.46,2.49-3.74,2.75-5.61,2.6-1.36-.14-5.33-1.19-6.58-.31.2.51,0,.37.54.63l11.28,3.71a26.6,26.6,0,0,0,7.23,1c9.15-.17,7.77-8.05,13.86-10.12,3.86-1.33,6.92-.82,10.8-.28,1.11.14,2.61,0,3.37.54-1.24,1.36-4.33,1.84-5.18,3.37,1.53.54,11-1.13,12.78-1.84,1.3-.54,1.81.14,2.55.68l4.37,3.15c3.06,1.92,1.67,1.39,4.67,0,7.2-3.32,15.76-2.38,23.39-1.93,4.59.28,9.47.76,14.14.85a91.92,91.92,0,0,0,14.06-.79c1.25-.2,1.88-.43,3.24-.6a19.53,19.53,0,0,0,2.92-.76,23.33,23.33,0,0,0,2.75-1c.79-.28,1.72-.82,2.63-1.16,2.5-1,11.06-.17,14.2-.06a63.86,63.86,0,0,0,10.43-.39A91.6,91.6,0,0,0,301,421.84c1.39-.48,3.32-.42,3.66-1.92-1.08-.4-4.85-1.05-5.45-1.59.77-.63,3.09-.46,4.23-.68,1.41-.29,3.06-.31,4.5-.48,2.61-.29,5.56-1.11,8.31-1.48s5.53-1.3,8.16-1.67l4.06-.94c1.22-.34,2.52-.62,3.8-1s2.92-.51,4.13-.91c2.7-.85,5.59-.85,8.25-1.53l8.42-1.36c1.59-.17,2.72-.48,4.2-.62l7.68-1c1.33-.4.31,0,.79-.57-1.7-.59-3.06-.42-5-1.3.54-1.11,1.56-1.36,2.67-2.19a19.05,19.05,0,0,0,2.29-2.29c4.88-5.25,8.93-9.1,16.05-12.05l3.77-1c4.79-.82,5.72-1.93,9.86-4.11,1.67-.91,9.33-8.22,8.45-9.75a27.39,27.39,0,0,0-3.32,2.38,48.83,48.83,0,0,1-8,5.07,6.28,6.28,0,0,1-.88.54c-.34.17-.79.37-1,.46-.71.31-.11.28-1,.19.43-1.21,3.63-3,4.57-3.71,9.55-7.43,7.62-13.44,16.41-24.86,1.22-1.59,6.29-7.82,7.88-8.39a11.27,11.27,0,0,1,.54,1.5c1.13-.68,3.54-5.58,4.11-6.6,1.22-2.24,2.63-4.42,3.8-6.63l3.79-6.58C431.6,325.38,434.15,321.3,434.41,320Z"/><path class="cls-2" d="M265,22.67c-1.95-.2-4.22-.17-6.21-.31-1.39-.12-4.36.05-5.3-1,.34-.32.4-.43,1.33-.49l11.26,0c4.73.19,12.1,1.84,17,2.43,1.21.17,1.53.54,2.58.71a9.89,9.89,0,0,1,2.72.48,24.3,24.3,0,0,0,2.77.54c1.42.46.15.57,2.41.71,1.65.11,1.48.65,2.33.82,1.19.26,1.81-.37,2.49.65-1.81.6-2.49-.42-4.16-.56-2.75-.23-2.41-.68-4-.77l-13.84-1.95a29.35,29.35,0,0,0-6-.54C268.61,23.29,266.77,22.84,265,22.67Zm13.44-8.9c-1.34-.51-1.19.17-1.79-.82.8-.6,3.63.31,4.68.42L293,15.21l15,3.94c1.73.29,1.08.46,2.1.74.43.11.91.06,1.25.17,1.05.37.42,0,.65.71a3.27,3.27,0,0,1-2.61-.26l-4.93-1.16A13.84,13.84,0,0,1,302,18.9l-4.9-1a17.74,17.74,0,0,1-2.72-.45,1.42,1.42,0,0,0-1.16-.23c-.6.17-.2,0-.49.37l-.19.42c-.37-.14-3.6-1-4.11-1.07l-8-2.39A7.1,7.1,0,0,1,278.45,13.77ZM199.08,6.14a6.16,6.16,0,0,1-2.36.8s-.56.31-.56.31c-.6.48.11-.48-.43.48a10.55,10.55,0,0,0,2.87-.09c.79-.19.85-.48,1.89-.56,2.27-.23,1.79.31,3.38-.48,1.27-.66,2.12-.29,3.48-.43.68-.08,1.11-.37,2-.54l9-1.08A19.66,19.66,0,0,0,223,4.07a49.09,49.09,0,0,1,7.49-.25,3.88,3.88,0,0,1,2.12.48c-1.22.42-5,.48-6.72.54l-10.17.82a18.49,18.49,0,0,1-2.95.6c-1,0-2.69-.06-3.52,0a17.61,17.61,0,0,1-2.75.77,10.74,10.74,0,0,0-3.28.48,12.83,12.83,0,0,1-3.09.42c-1.11.15-1.79.63-2.78.71-.6.06-1.31,0-1.87,0-1,.14-.34.11-1.22.48s-2.1.34-3.15.66l-8.64,2c-.37.34-.09.19-.83.19,0,.32.34.29-.42.2-.2.29.17.06-.28.29s0,.11-.63.11c-1.1.08-6.26,2.13-7.57,2.47-3.2.82-11.25,4.39-14.65,5.81l-12.47,6.49-7.09,4.59c-2.16,1.39-4,2.75-5.95,4.25l-11.63,9A382.85,382.85,0,0,0,89,74.6L84.13,80c.12,1.71,1.73.12,3.86,3.66.62,1,.08.94,1.07,1.65l.12.28.22.2.26.14.23.2.17.25.22.17.34.2-.34-.2-.22-.17-.17-.25-.23-.2-.26-.14-.22-.2-.12-.28c0-1,0-.74.57-1.31l6.1-6.21c3.6-3.45,6.94-7,10.63-10.43l3.6-3.26c1.27-1.13,2.46-2.27,3.74-3.34,2.46-2.1,5.3-4,7.76-6.18L131.7,47.3c2.1-1.22,4.28-2.83,6.4-4,.85-.49,1.25-.85,2.19-1.39,5.61-3.15,11.28-6.44,17.17-9,2.39-1,4.71-2.32,7.18-3.23.65-.25.53-.31,1.1-.54s.94-.25,1.45-.45l7.54-2.92c2.15-.65,4-1.62,6.09-2.41l5-2.1c1.62-.76,3.34-1.16,5-1.78,2.69-1,5.44-1.59,8.1-2.5l11.31-2.63a13.6,13.6,0,0,0,1.59-.15c.79-.19.23-.25,1.13-.51s2.19-.11,3.21-.36l5.84-1.22a26,26,0,0,1,3-.34c2.75-.32,1-.51,6.21-.77,1.58-.08,4.9-.88,6.2-.25a9.66,9.66,0,0,1-2.72.48c-1.27.2-1.44.62-2.63.73s-2,.06-3.09.2-1.67.46-2.58.57c-1.11.17-2,.08-3.06.34a22.41,22.41,0,0,1-2.55.54c-1.17.11-7.6,1-8.42,1.36-1,.4-1.9.2-2.89.48a14.19,14.19,0,0,1-2.61.68c-1.28.2-3.8,1.42-5,1.56l-3.72,1.05c-.73.28-.31.31-1.07.57-1.31.48-2,0-.71,1.16-2.07.42-1.93.85-3.18,1.19l-8,2.64a14.78,14.78,0,0,0-1.41.62c-3.24,1.13-6.16,2.15-9.22,3.51-6.23,2.78-12.58,5.67-18.14,9.33-1.5,1-5.24,2.81-6.41,4,.29.14-.11.25.71.08a27.39,27.39,0,0,0,3-1.59L162.62,36c.68-.37,1.79-1,2.47-1.27l2.64-1.11c.87-.34,1.81-.76,2.6-1.16,1.85-.85,3.55-1.3,5.36-2.16a88.64,88.64,0,0,1,11.06-3.91L198.23,23a38.83,38.83,0,0,1,6-1.48c1.24-.19,1.58-.62,2.94-.76l6.33-1.25a28.93,28.93,0,0,1,3.06-.45c1-.2,2.12-.54,3.09-.65,1.16-.12,2.32-.12,3.43-.34a16.69,16.69,0,0,1,3.23-.51c3.51-.2,15.5-1.88,17.2-.37-.82,1.36-4.87,2.32-6.91,3.14-5.05,2.1-12.33,1.14-17.63,2.55-1.85.51-7.18.6-8.65,1.39l1,.15c-1,.62-.76-.2-1.92.59-.91.6-.83.4-2.1.57a5.44,5.44,0,0,0-2,.68c-.77.28-1.59.11-2.41.37s-.68.48-2.07.68a4.32,4.32,0,0,0-2,.62l-4.22,1.25c-3.91,1.41-8.53,3.65-11.54,4.7-.74.26-.91.48-1.9.83a14.4,14.4,0,0,1-1.93.73c.46,1,0,.63-.79.88l-2.83,1.56c-.74.34-.8.14-1.45.94a17,17,0,0,0,3.26-1l13-4a6.92,6.92,0,0,0,1.59-.51c.65-.2,1.27-.2,1.9-.34s1.05-.37,1.58-.51a19.74,19.74,0,0,1,2-.31c.68-.15.93-.37,1.59-.51s1.3-.12,1.92-.26l-1.44-.25a3.84,3.84,0,0,1,1.75-.54c1.85-.17.69-.12,1.93-.63.63-.22,1.42-.17,2.19-.34a11.28,11.28,0,0,1,1.61-.59c.74-.14,1.53-.12,2.33-.26s1.24-.39,1.75-.51l12.45-1.81a18.62,18.62,0,0,0,2.49-.06c.88-.11,4.45-1.27,6.46-.25-1.1.51-2.8.34-4.16.48s-2.33.76-3.94.85a9.15,9.15,0,0,0-2.33.25c-2.75.85-3.17.37-5.72,1.08,2.69-.23,4.9-.62,7.82-.65,2.38,0,4.42-.51,5.84-.17,1.11.23,1.19.11,1.33,1.13,1.25-1,7.43-1.13,9.5-1.19,1.67,0,3.23-.34,4.85-.48,4.39-.43,18.17-.23,23.89-.23l1.28,0,1-.14A.39.39,0,0,1,272,27a.91.91,0,0,1,.17-.08c-1.19-.91-2.12-.14-2.49-1.05,1.84-.79,7.25.31,9,.48,3.12.31,6,.57,9,1,1.47.23.37.46,4.19.77,1.82.14.8.45,4.23.79a5.13,5.13,0,0,1,1.92.62c.65.2,1.51.12,2.24.29,1.22.25.82.56,1.82.71,1.24.19,1.24-.34,1.95.59-1.61.48-1.93-.34-3.6-.42-3.37-.23-2-.46-3.51-.74-1.28-.28-2.47-.09-3.89-.51a10.79,10.79,0,0,0-4.16-.34c.56.54,1,.31,2,.68l6.24,1.59c1.19.17.93.42,1.87.65a12.73,12.73,0,0,1,2.32.48l24.12,7.65c2.9.88,13.55,5.65,16.56,7.2.68.37,1.33.68,1.81.91,3,1.45,13.86,7.43,16.76,9.5l6.4,4.25c.74.51.82.65,1.56,1.13,6.32,4.37,3,3.09,6.21,5.64l6.46,5.62c4.48,4.16,9,8.87,13.18,13.29.48.51.82.91,1.28,1.42.71.79,1,.68,1,1.73a4.89,4.89,0,0,1,2.55-1c-.76-1.21-7-7.37-7.91-8.27l-7.82-7.17c-.43-.52-.17.11-.37-.69.79.06.26-.08,1,.49l1.45,1.27c3.12,2.61,3.09,2.44,6.77,5.93l7.57,7.23c.65.59.94.48.63,1.13,1.13-.17,1.67-.54,2.89-.68a14.79,14.79,0,0,0,3.11-.48c1.42-.4,5.14-.51,6-1.22L404.22,79c-3.29-3.37-6.38-5.58-9.1-8.22L376,55.61c-1.67-1.25-3.29-2.36-5-3.52-4.05-2.69-11.62-7.74-15.79-10.06L334.06,29.78c-.88-.39-.25.23-.68-.54.74-.53.85-.22,1.51.15.42.25-.09.05.7.36a4.36,4.36,0,0,1,.77.26l29.82,15.56,9.13,6.1c1.87,1.16,12.24,9.27,14.57,11.25.9.79,1.44,1.33,2.29,2.07,3.4,2.92,5.9,5.07,9,8.28,2.95,3,5.87,5.67,8.67,8.81,1.45,1.62,3.8,3.74,3.63,5l-.17.17.17-.17,2.75-1.84c1.05-.4,7.88-.2,9.41-.14s2.58.54,4.14.56a12.08,12.08,0,0,0-2.44-2.32c-3.51-3-5-.77-7.91-2.1a8.61,8.61,0,0,1-3.12-1.87l-5.64-9.13c-.79-1-1.53-1.75-2.29-2.66-6.47-7.48-10.92-10.57-18-16.61-1-.82-2-1.45-1.16-2.92,2.49-.34,4.81,1.9,6.94,1.93-.2-.57-.08-.32-.37-.68-1.19-1.62-8-4.31-10-4.85A49.7,49.7,0,0,1,374.46,40a51.66,51.66,0,0,0-5-3c-.57-.28-.63-.4-1.19-.68-.77-.34-.8-.42-1.37-.71-.93-.45-1.78-.82-2.63-1.3-1.62-1-3.63-1.82-5.22-2.69L348.6,26.3c-.73-.37-1.89-1-2.6-1.36-5.9-2.84-6.32-3.49-13.44-6.38L303.05,8.69c-1.19-.25-2-.62-3.09-.85-2.72-.54-7.08-1.9-9.47-2.38-2.15-.42-4.62-.82-6.6-1.36-1.05-.28-2.27-.31-3.35-.59L274,2.23c-1.22-.17-2.52-.14-3.66-.37C263.14.53,248-.12,240.46,0c-3.09.06-11.79.59-14.82,1-1.28.17-2.27.31-3.49.37L211.86,3.08Z"/><path class="cls-3" d="M93.49,141.1c-.2,1.56.48.17-.17,4.05-.23,1.36-.06,2.81-.49,4.08l-1.27,8.11a57.7,57.7,0,0,1-2.89,10.83c-2.13,4.82-1.42,4-4.91,9-2.75,4-6.6,6.86-11.76,6.83H67.41c-2.18,0-2.7.29-3.74-1.1a15.69,15.69,0,0,1-2.87-6.24l-1.44-5.44a21.8,21.8,0,0,1-.31-2.21c-.15-.68-.4-1.11-.54-1.73l-1-5.81c-.2-6.27-1.48-10.4-1.56-12.5-.26-5.19-.14-8.28,0-13.55.14-6,.74-11.85.76-17.92,0-5.33.77-6.63.83-8.9,0-2.69-.15-7.31.25-9.78l.71-4.25a4.22,4.22,0,0,1,1.93-3.06c.93-.71,1.61-1.64,3.26-1.64,4.14-.09,10.2-.37,13.92,1,2.6,1,3.09,3.51,3.94,4.65l1.73.14A12.27,12.27,0,0,1,85.15,100l1.45,5a13.42,13.42,0,0,0,.48,2.63c.31.94,1,6.41,1.62,8,.39,1,.28,1.58.59,2.49.17.51.31.54.48,1s.17.82.37,1.31c1.16,3.2,3.23,5.52,4.59,8.39.91,1.87,1.7,2.07,1.73,4.79s1.22,2.15.91,5.21C97.09,141.61,95.64,140,93.49,141.1Zm-69-46.69c2.72-1,.17-3.82,3.6-4,1.56,2.18,3,6.83,3.4,9.38.11.79.48,1.39.65,2.38,1.42,9,.88,23.73.88,33.51a82.79,82.79,0,0,1-.62,12.55l-.46,9.1c-.11,5.22.4,6.21-.39,11.48-.12.77-.06,1.59-.14,2.35-.17,1.68-.66,2.5-.71,4.06-.09,2.24.25,7.48-.34,9.27-1.31,4.05.05,4.53-3.26,6.29l-5,2.07c-1,.31-4.11.77-5.9,1.47-2.15.88-1.36,0-3.12,1.53a7.35,7.35,0,0,0,1.42,2.67c1,1.27,1.16,1,3.26,1H58.88c6.4,0,7-3.71,10.4-4,2.66-.2,2.46,1.59,4.9,2.47,2.89,1,3.18.34,5.36-.85,1.22-.65,1.11-1,2.07-1.53a11.34,11.34,0,0,1,2.86-.91c1.5-.17,8.76-2.75,11.28-3.29l5.45-1.78c.48-2,6.43-13.84,8-17l2.72-5.61a4.4,4.4,0,0,1,.45-.82,7.4,7.4,0,0,0,.43-1c.85-2,1.41-1.39-.06-4-.45-.76-1.16-1.19-.71-2l.57-.34c3-1.36,5.67-2.8,6.49-6.8.43-2.12.28-11.68.11-14.2-.14-1.93-.82-3.88-1.16-6a40.2,40.2,0,0,0-.62-4.57,5.77,5.77,0,0,1-.57-1.27c-.25-1.08,0-2.27-.2-3.37a9.89,9.89,0,0,0-1.07-2.44,10.62,10.62,0,0,1-.49-3c-.14-1-.59-1.9-.76-3-.34-2.24-2.81-9-3.29-10.94a9.82,9.82,0,0,0-5.64-6.86c-1.39-.6-4.76-1.53-6.61-2.36a8.22,8.22,0,0,0-1.27-.34l-2.81-1a25.17,25.17,0,0,1-5.84-3.09,6.31,6.31,0,0,0-2.09-1.47c-1.73-.48-1.25-.14-2.39-1.16.43-.43,1-.85.49-1.87-1-2-6.78-1.56-9.61-1.51-11,.17-5.7.29-16.47-.42a9.58,9.58,0,0,1-2.44-.6,40.53,40.53,0,0,0-5.87-.11c-5.41,0-3.68-.48-5.41-.71s-4,0-5.81-.2A49.34,49.34,0,0,0,34.1,81c-2.07,0-4,0-6.07,0-1.72,0-1.3-.15-2.38-.63-1.3-.59-5.07-.25-6.57-.28s-2.5-.54-2.1,1.19C18,85.85,23.33,92.23,24.52,94.41Z"/><path class="cls-3" d="M109.5,356.16l-5.16-3.77c-1-.68-1.75-1.16-2.75-1.81s-1.67-1.22-2.58-1.79c-7.22-4.62-13.74-9.63-20.66-14.76-.65-.49-8.9-7.46-9.95-7.77-.45.34-.54.88-1.33.74-.57-.09-2.58-2.3-3.72-2.92-1.53-.85-6.23.25-7,1.1.12,1.14.4.94,1.11,1.65l6.66,7.71c.88,1.16,1.76,2.23,2.61,3.23,1.61,1.81,4,3.85,5.89,5.55s4,3.6,6,5.47l6.07,5.39c1.19,1,1.84,1.64,3.06,2.55l6.38,5.1c1,.85,2.27,1.7,3.32,2.5s2.29,1.59,3.37,2.27c.74.45,3,2.06,3.71,1.78.43-.4-.28-1-.65-1.33-2.12-2.07-14.26-12.33-16.18-13.78a7.61,7.61,0,0,1-2.44-2.52c1.33,0,.88,0,1.61.4l4.06,2c3.65,1.64,4.53,2.1,7.23,4.62l11.73,9.92c.51.34.82.48,1.28.82.79.57,1.33,1.22,2.21,1.76s1.41,1,2.29,1.64c1.87,1.56,3.83,2.7,5.84,4.2,2.67,2,5.56,3.63,8.45,5.5l4.88,3c1,.51,1.61.8,2.58,1.36a48.33,48.33,0,0,0,5.07,2.84c1.73.73,3.43,1.75,5.3,2.61.62.28.48.34,1.25.65,5.21,2.09,10.12,4.79,15.5,6.57l2.87,1.08c2.66,1.28,7.37,2.33,10.23,3.52l4.85,1.24a7.71,7.71,0,0,0,1.36.51l24.77,5c2.84.17,5.13.74,7.31.8,2.56.08,4.85.45,7.29.65s5.13.2,7.71.23c5.61.05,18.2.39,23.58-.46,5-.79,4.85.43,10.69-3a10.41,10.41,0,0,0,4.11-4c.4-.76.06-.85.77-1.39,1.73-.54,7.71.09,10.63-.56,1.67-.4,3-.37,4.73-.88.79-.23,1.59-.17,2.35-.4,3.74-1,13.67-4.34,16.67-6a15.38,15.38,0,0,1,2.16-.94c1.38,1.73,1.5,3.83,4.67,4,2.92.14,3.86-1.5,5.59-3.34l6.32-6.78c3.26-3.57,1.5-2.32,4.36-1.79a19.78,19.78,0,0,1,2.36-3.6,18.57,18.57,0,0,1,3.31-2.94l3.6-2.44c2.36-1.73,4.93-3.18,7.46-4.82a29,29,0,0,0,8.16-7.43c1-1.33.43-.59,1-2.15,1.67,0,1.36.79,2.4,3.29,1.51-.06,1.39-.71,2.27-1.76,4.28-5.1,9.7-9.84,14.23-14.91l3.89-4.48c.65-.85,1.1-1.53,1.81-2.35,1.25-1.5,2.24-3.46,3.29-5a24.81,24.81,0,0,0,2.61-5.75c.48-1.62-.06-1.93,1.16-3,1.5,1.5,1.7,2.55,4.39-.23,1.5-1.56,2.58-3.74,3.83-5.55.34-.51.54-.91.85-1.42.65-1.11.31-1.11,1.56-1.05.65,1.47.2,4.7,1.33,7,1.05-.37.54-.85,2.52-2.61a13,13,0,0,1,3.18-2,17.25,17.25,0,0,0,3.14-1.87c.88-.68,1.28-2.55,2.33-3,.71,1.54-.91,4.51.48,5.93a14,14,0,0,0,3.46-3.94c1.16-2.24.93-3.88,1.5-6.32l-.42-.46c-1.7,0-3.38,0-5.08,0-1,0-1.56.15-2.12-.34a22.05,22.05,0,0,1-3-3.85c-1-1.33-4-9.7-5-12.05a28.51,28.51,0,0,0-2.07-5,8,8,0,0,0-2,1.36L392,295c.31.31,0,.11.54.37,1,.48,1.93.59,2.89,1a1.63,1.63,0,0,1,.45.25c-.11,1.37-.22.8-1.21,1.37-.37.19-.83.62-1.34,1-1.05.65-2.24,1.05-2.35,2.47,1.22,1.1,3.43,1.75,4.34,3.43.71,1.36,2.38,3.51,1.3,4.84-1.42,1.79-2.49,2.72-5,2.72-2.66,0-12.27.12-14.34.94-.91.34-3.21,2.72-4,3.49-1.27,1.24-2.49,2.49-3.83,3.65-2.15,1.9-3.34.23-4.7-1.22-.62,1.14-.85,3-1.42,4.28L358.24,332c-.56.68-1,1.48-1.56,2.19-4.48,5.78-9.89,10.63-14.88,15.93-.91.93-2.75,3.51-3.85,3.71-1.28-1.05-.63-2.49-2.3-2.75-.85,1.05-.71,1.56-2.38,3.4-3.26,3.55-7.51,6-11.54,8.48-.48.28-1.16.79-1.76,1.16-7.68,4.79-6.66,6.29-8.67,8.36-1.1-.17-.68-.37-1.67-.68-.88.48-7.14,7.74-8.05,8.71s-2.78,3.37-5.08,3.26a5,5,0,0,1-4.47-3.86c-1.56.23-5.93,2.44-7.52,3.06l-9.95,3.23c-.76.2-1.39.14-2.15.37-2.69.77-2.35.34-4.39.74a15.4,15.4,0,0,1-2.13.54c-1.76.14-6.72-.29-7.63.14-.68.34-1.53,2.46-2.8,3.49-4.68,3.77-8.14,4.13-14.15,4.5-7.82.48-16.07.26-23.95.12-4-.06-7.54-.57-11.45-.83l-16.22-2.43a10.78,10.78,0,0,1-2.4-.66c-.88-.19-1.68-.11-2.58-.39-2.5-.77-7.74-1.65-9.73-2.5l-9.49-3c-2.16-.57-4.77-1.79-7-2.53-3-1-7.57-3.31-10.57-4.56a109.21,109.21,0,0,1-10.35-5.1l-10.74-6.32a97.43,97.43,0,0,1-11.82-8Z"/><path class="cls-2" d="M438.18,155.3c-.91-.45-.94-1.5-.57-2.41C438.58,153.29,438.6,154.11,438.18,155.3Zm-16.1-56.64c-.23,4.11-1.28,9.76-.94,13.61.26,2.78-.54,2-.71,3.83.49-.54,0-.17.63-.43l5.78,9.41c1.53,2.87,2.38,5.13,3.74,7.94l6.47,17.07c.42,1,.85,1.41.39,2.77-.79-.34-.25.09-.62-.48-.26-.42,0-.59-.6-1.87a18.16,18.16,0,0,0-.93-2.21l-.88-2.44c-.85-2-1.22-3.26-2.41-5.72a9.91,9.91,0,0,1-.37-1.08c-1.61-3.63-7.82-16-10-19a7.11,7.11,0,0,1-.59-1l-.71-.88.08,5.55a5.58,5.58,0,0,0,.54-.25,9.13,9.13,0,0,0,1.17,1.76,73,73,0,0,1,7.39,12.41c.26.63.6,1.28,1,2,1,1.9,5.16,12.53,5.55,14.17l1.56,4.34c.23,1.13.57,1.22.8,2l4.22,15.5a7.42,7.42,0,0,0,.6,2.24c.19.68.19,1.59.36,2.33.26,1.13.51,1,.63,2.29a21.43,21.43,0,0,0,.28,2.47c.17.74.2.25.43,1a4.8,4.8,0,0,1,.14,1.33c.08.83.14,1.53.22,2.47.85,0,.4.11.85-.23-.31-1.16-1,.32-.76-4.93-.68-.65-.68-.23-.71-1.64a5.73,5.73,0,0,1,.2-2c1,.31.37-.51.79.76,0,.09.09.94.09,1.11.14,1.61.39.59.85,4.11a13.37,13.37,0,0,0,.54,2c.31,1.3.22,3,.51,4.54,1.05,5.47.68,4.13-1.48,4.36-.68.09-1.36.09-2,.17-1.42.17-1.53,1-2.81,1.08-.42-.17-4.39-9.75-4.62-10.38l-1.44-3.51c-1-2.18-3.35-8.36-4.59-10.43-.32-.54-.15-.06-.46-.8s-.82-1.73-1.47-2c-.34,1,.88,3.4,1.3,4.48.17.42.2.88.37,1.3s.28.4.51,1c1.33,3.51,1.82,6.26,2.81,9.24,1.24,3.77.48,1.47-1,4A7.18,7.18,0,0,1,431.4,194c.69,1,1,.49.86,1.9l-1.48-.25c0,1-.88,2.52-2,2.46-.94,0-1.93-1.75-1.93-2.69l1.45,0-2-.37-.45-.17-.65-.14.65.14.45.17c.23.71-.14.43-.25,1.48a19.3,19.3,0,0,0,0,2.29c0,1.48,0,3.07.14,4.54.14,2.13.37,6.72-.17,8.59.09,1.39-.22,1.56.57,2.41a18.35,18.35,0,0,1,4.39,10.23c.26,1.82.46,3.26.74,4.91.6,3.74-.62,9-2.1,12.44l-2.78,5.73c1.05.79-.39,8.53.34,10,1.05-.26,3.26-5.3,4.48-4.25.57.45.34,3.2.26,3.88-1,8.65-5.81,5.3-6.63,6.07-.26.37-.23-.06-.23.82l.76,3a13.11,13.11,0,0,0,1.82,2.95c1.67,2.07,2.8,2.24,5.19,4.2,2.57,2.15.22,4.67-1,6.38l-2.86,4.45c-.62.93-.31,1-1,1,1.42,3.45,2.67,5,4.14,7.88a5.14,5.14,0,0,0,1.87,2.09c2.78,1.51-.68,1.85,3.57,4.34.43.23,2.27,1.14,2.67,1.28a15.22,15.22,0,0,0,3.46.45c.62-1.05,1.19-2.64,1.75-3.77L452.38,279a5.87,5.87,0,0,1,.4-1c1.16-3.14,2.63-8.87,4.14-12.92l2.86-10.29a10.25,10.25,0,0,0,.59-2.1l.94-4.51c.17-.76.4-1.07.54-1.95.45-2.47,1.42-6.75,1.61-8.87.17-1.76.6-2.9.77-4.6s.28-3.17.54-4.7l1.08-9.47a309.36,309.36,0,0,0,0-40.85c-.09-1.36-.43-3.23-.51-4.82s-.17-3.2-.29-5c-.08-1.58-.39-3-.51-4.76-.08-1.33.12-3.63-.59-4.59-.57.48-.26.45-.74.93-.68.66-.28-.17-.88.68-.11-8.73-2-14.4-5-22.22a44.2,44.2,0,0,0-2.24-5.47l-6.16-13.83a.34.34,0,0,0-.05-.17l-.8-2.07c-.28-.68-.39-.54-.62-1.28-.42-1.33-.14-.93-.85-1.24-.77,2,.6,4.3.4,6.46-1.11-.65-5.28-6.83-6-8.08-2.21-3.57-6.8-12.22-9-14.49-1.11.26-.57.71-1.68.83a18,18,0,0,1-2.15-.34,40,40,0,0,0-4.68-.34,29.82,29.82,0,0,0,2.38,3.23l3.32,4.79c.37.59.79,1.13,1.08,1.61a14.68,14.68,0,0,1,.9,1.82,1.72,1.72,0,0,0,.32.54c.34.45,0-.2.28.34s.23.25,0,.79c-.8-.34-.34-.2-.65-.79-.4-.83-1-1.22-1.73-2.44L427,104.67c-.79-1.16-1.59-1.9-2.38-3S423.18,99.2,422.08,98.66Z"/><path class="cls-3" d="M399.86,215.06c1,.19.85.39,1.75.65,5.05,1.5,4.17,1.64,5.28,4.56,1.21,3.15,4.59,12.7,4.59,15,0,1.95-.68,2.18-.94,4-.57,3.6.85,5.53-.65,6.92L403.65,251a24.29,24.29,0,0,1-12,3.8c-3.46,0-6.15.23-8.9-1.05s-4.36-2.27-4.53-5.36c-.2-4.42.25-5,1.75-8.19.68-1.5,2.19-3.77,3.4-6.32a12.56,12.56,0,0,0,1-8.28,36,36,0,0,0-.88-4l-2-7.8c-.06-1.64,1.87-1.22,3.46-1.22,2.69,0,1.47.91,4.14.88,5.13-.08,3.68.23,6.55.71a12.87,12.87,0,0,1,2.18.34A8.86,8.86,0,0,0,399.86,215.06Zm15.39-6.1a44.15,44.15,0,0,0-6.89-2.69c-.65-.26-1.36-.23-2-.46-2.21-.7-3.29-1.41-5.76-1.21-1.93.17-2.61-.71-3.94-.91-1.64-.26-2.86.11-4.45-.46-3.17-1.13-11.22-.93-14.57-2.46-.76-.34-1.08-.57-1.87-.23-1,1.87,1.64,4.37-4.28,4.74-4.56.25-6.63-.83-10.69-2.7a15.14,15.14,0,0,0-7.45-1.41c-2.3,0-1.87-.49-3.52-.77a27.2,27.2,0,0,0-8.13-.45c-1.65.08-3.63-.12-1.76,1.64a22.47,22.47,0,0,0,4.14,2.55c3.51,2,4.56,1.53,8.53,2.27.71.14,1.25.37,1.84.42a7.58,7.58,0,0,1,1.85.26,8,8,0,0,1,.17,1.9c.05,1.27.14.71.51,1.59.59,1.47,1.58,9.24,1.67,10.63.31,5.27-.2,10.46.71,15.59.68,3.8.25,11.79.25,16.13,0,5.35,1.08,9.95.91,15.42-.08,2.69-.23,5.67-.08,8.33a35,35,0,0,0,.62,3.52c.14,1.3.4,2.32.57,3.43.36,2.43-1,3.79-1.17,4.93-.34,1.7,0,4.11-.19,5.87-.17,1.27-.57,1.87-.69,3.28s.37,7-.45,7.63-5.33.4-7.09,1.08c-1.13.42-3.54.85-4.81,1.38s-5.73,2.92-5.25,4.63c1.67.59,11.06.11,13.69.11,1.87,0,4.91.2,6.49-.37l5.53-1.22c1.05-.14,2-.11,3.15-.31.93-.14,1.9-.37,2.86-.48s2.27-.12,3.23-.31c3-.68,6.38-.51,9.56-.66,1,0,1.95-.25,2.92-.31l3.23-.22c.65-1.39-.8-2.67-1.65-3.18a20.89,20.89,0,0,0-3.48-1.5c-1.62-.65-3.09-.17-4.34-.68a13.45,13.45,0,0,1-3.06-1.84c-.4-.77-.06-31.33-.12-36.23,0-1-.14-1.53.34-2s5.28-.49,6.16-.15,4.36,7.57,4.76,8.42c.71,1.56,1.42,3,2.15,4.54l7.54,18.71c.6,2,1.62,3.88,2.3,5.81s3.09,9.18,5.33,9.41,7.25,0,9.78,0c2.15,0,4.48-.06,6.57.06,5.39.34,4.23,6,6.78,6.43a52.46,52.46,0,0,0,6.38-.06c.39-.68,1.19-3,1.7-3.48,1.05-.91,12.36,0,14.4-.6.28-3.2.48-4.28-1.87-4.79a22.29,22.29,0,0,0-2.67-.76c-1-.15-1.93-.2-2.89-.43-5.13-1.1-5.36.85-12.53-3.88-2.75-1.82-1.93-2.89-2.78-3.86-.54-.62-1.05-1-1.64-1.7-1.08-1.25-1.53-2.8-2.55-4.11a20.67,20.67,0,0,1-2.18-4.28c-1.22.26-4.37,1.9-4.63,1.87-1.7-.08-2.09-3.43-2.21-3.57-.9-.57-1-.11-1.67-1-.42-.54-.17-.34-.68-.79a43.08,43.08,0,0,1-5.36-6.75l-1.07-1.62c-.43-.62-.74-2.29.36-2.41,1.82-.22,2.81,2.64,4.71,1.36-1.19-1.44-4.17-7.2-5.39-9.26a21.67,21.67,0,0,1-1.67-3.12c-1.08-3.38,1.36-4.71,4.42-5.13,1.76-.26.54-1.45,2.22-2.53,1.1-.68,2.09-1.07,3-1.75a49.13,49.13,0,0,0,5.7-6.58c.34-.51.62-1.08.93-1.59,1.87-3,3.86-6.74,4.11-10.4a31.41,31.41,0,0,0-.37-9.1c-1.1-5.05-.68-6.89-4.56-10.2-1.5-1.28,0-2.19-1.22-3.6-1.7-2-1.3-.74-3.57-1.45A28,28,0,0,1,415.25,209Z"/><path class="cls-3" d="M78.43,273.56c-2.6-.31-3.85.43-6.2-.88s-4.91-4.87-6.55-7.2c-.88-1.27-2-2.77-3.57-3.28-1-.32-2,.05-3.12-.43-2.64-1.13-3.8-1.22-7-3.2-.51-.31-.63-.31-1.22-.65l-3.35-1.68c-3.28-1.44-5.52-3.51-8.08-5.87-1.27-1.19-2.32-2.06-3.51-3.34l-4.73-5.7c-3.75-5.87-4-5.27-1.53-8.73l3.14-3.74a11,11,0,0,0,1.33-2c2.58-4.37,3.52-2.95,6.33-4.08,2-.83,4.05.28,6.2.34,1.76,0,1.45,0,2.7.65,3.4,1.81,5.95,2.89,8.61,5.16a37.69,37.69,0,0,1,6.41,7.34,8.45,8.45,0,0,1,.65,1.19c.26.42.43.57.71,1l6.07,9.33c.25.39.34.76.56,1.13a19.07,19.07,0,0,0,3,3.88c.6.54,2,.85,2.41,0a10.11,10.11,0,0,0,.34-1.3c.37-1.31,1.28-2.5,1.47-3.8.17-1,0-2.07.2-3.09a22,22,0,0,0,.65-2.86,82.23,82.23,0,0,1,2.16-11.62c.25-1,.22-2.07.37-3a26.9,26.9,0,0,0,.59-2.92l0-11.05a6.23,6.23,0,0,0-1.22-3.8,6.09,6.09,0,0,1-.59-.88l-3.69.08c-.68,1.34-1.7,2.47-2.47,3.92-2.23,4.16-3.37,9.15-6.23,12.92-1.25.09-1.73-.37-2.75-.74a24.67,24.67,0,0,1-2.38-1.16c-1.53-.9-3.52-1.1-5.39-1.73-1.67-.56-3.91-.79-5.67-1.33s-6.57-2.07-8.3-2.24c-.91-.08-2.13-.2-3.06-.37-2.41-.37-4,0-6.41.17-4.08.29-7.29,2.13-10,3.83A29.49,29.49,0,0,0,18,228.72c-.2.25-.77.88-.88,1.05a27.73,27.73,0,0,0-4.68,14.43l-.28,6.74a13.2,13.2,0,0,0,.88,2.41c.45,1,.45,1.65.91,2.69.34.83.68,1.79,1.05,2.47a33.93,33.93,0,0,0,4.47,5.9c5.25,6,13.5,11.22,20.47,14.76l9,4.94a30.93,30.93,0,0,1,4.36,2.72c.8.62,1.28.68,2.16,1.39,2.24,1.87,3.26,2.38,5.81,4.82A15.81,15.81,0,0,1,64.18,297c1.22,2.15.85,3.26.88,6.15,0,3.48-.32,3-1.9,4.93-1,1.28-2.1,2.64-3.21,3.88-1.5,1.73-1.61,2.13-4.84,2.13-4.2,0-6.89-1.53-11-1.79-3.91-.25-1.53-2.43-6.61,1.14-1.07.76-.76.62-2.55.62-4.25,0-3,.51-5-1.27-.82-.74-1.7-1-2.47-1.71-3.91-3.26-5.9-8.81-7.37-13.69-.23-.76-.42-.62-.62-1.41a5.35,5.35,0,0,0-.48-1.62l-1.73-4.76c-.29-.63-.26-1-.54-1.53-1.31-2.75-2.75-5.81-4.28-8.45-1.82-3.09-4.11-4.39-8.28-4.14-1.25,3.52-.11,11.88,1,15.22,1.08,3.18.31,3.49,2.52,6,.77.85.94,1.92,1.7,2.46s.85.29,1.45.65c2.3,1.45.88,2.44.48,4.37a33.41,33.41,0,0,0-.2,3.8,11.58,11.58,0,0,1-.59,3.54c-.88,4.28-.71,7.26-1.05,10.91-.11,1.31-.4,2.58.2,3.49a4,4,0,0,0,2.27,2l5.27-13.24c.45-.88,1.05-.91,2.32-.91,6.78,0,4.74-.48,6.66,2.78.91,1.53,6.81,3.74,8.82,4.11,1.3.26,1.67.45,2.64.68l5.41,1c1.81.12,4.17.63,5.84.23,3-.68,4.93.11,8.11-1.42a15.31,15.31,0,0,1,5.44-.82c2.47,0,3,1.13,4.36,2,1.48-.59,4.26-4.7,5.53-6.09,2.21-2.44,4.4-5.33,6.75-7.82.48-.52.76-1,1.3-1.59,3.52-4.06,3.12-2.84,3.12-8.59V292.3c0-6.49-.25-5-1.67-11.31C81.21,278.44,79.6,276,78.43,273.56Z"/><path class="cls-3" d="M418.56,94.24c1.82-.76,6.41.37,8.51.54,2.44.17,2.44.09,3.46-1.27a5.08,5.08,0,0,0,1.21-3.58c-2.74-1.07-9.86-1.67-13-1.47-2.58.14-3.26,2.72-7.68,3.06a26,26,0,0,0-2.95.63,23.91,23.91,0,0,0-3.28.42c-4,1.28-6.64-.48-6.72,4.14a29.91,29.91,0,0,0,1.93,10.8c.36,1.1-.17.65.68,1.1A16.42,16.42,0,0,0,402,105.1c.2-.65.43-1,.6-1.7.31-1.45,1-4.2,2.35-4.68a3.06,3.06,0,0,1,3.2,1.14,17.82,17.82,0,0,1,1.16,3.6c1.48,4.36-1.5,4.59-1.75,11.16a23.82,23.82,0,0,0,0,2.53,1.91,1.91,0,0,0,.71,1.58c1,1.22.82,1.65,1.19,3.32.42,1.93.11,15.53.11,18.62,0,2.47.48,6.61-.76,8.28-1.62,0-3.69-2.69-4.65-3.83a71,71,0,0,1-7.12-10c-1.25-2.27-5-7.74-6.72-10.38-.34-.51-.48-.88-.85-1.42l-5-7.68c-.34-.48-.46-.9-.77-1.33-1-1.25-3.57-3.09-3.77-4.51,1.33-1.73,3.52-.45,3.71-3.09.57-7.76-3.54-5.07-5.21-8.16-.71-1.33.14-1.28-1.67-1.62a7.25,7.25,0,0,1-2.41-1c-2.47-1.56-5.5-2.21-7.94-3.91-.68-.48-.11-.23-1.05-.63-5.07-2.09-5.84-.68-9.95,1.39-1.05.54-15.36,2-17.69,2.47-1.07.23-8.53.68-9,1.3a2.29,2.29,0,0,0-.11,1.56c.31,1.31,5.3,3.83,7,4.65a6,6,0,0,1,1.14.54,11,11,0,0,0,1.13.51l3.35,1.7c1.53.82,4,2.13,5,3.52,1.44,2.09,1.1,2.46,1.1,5.52,0,6.78.28,52.22-.17,53.64a11.53,11.53,0,0,0-.45,1.16,22.67,22.67,0,0,1-3.89,7.76c-2.38,3.21-7.62,6.67-11.14,9-1.13.79-3.2,1.7-3.17,3.29,1.44.93,6.38.45,8.64.45,3.29,0,15.71.2,18-.26,1.53-.31,1.73-.71,3.83-.73,1.47,0,2.95.11,4.39,0,.43-.66,1.79-2.41,1.82-3.06a8.21,8.21,0,0,0-2.47-.23c-4.19-.37-8.56-4.74-10.6-8.17-1.33-2.23-2.27-5.83-.94-8.61.51-1,.26-8.17.43-10.12.14-1.5.57-3.06.65-4.79.2-3.35-.25-7,.63-10.24s0-6.69,1.07-9.61c.91-2.35.23-2.29.2-4.53l.62-4.79c.09-1.56.06-4.17,1.76-4.57,2-.48,3.29,1.17,4.79,2.22,3.77,2.69,6.95,6.32,10.12,9.66,3.6,3.83,6.07,6.29,9.38,10.41L394.27,161c2.16,3.32,4.14,6.35,6.07,9.81.42.76.93,1.44,1.53,2.41,1.44,2.49,2.72,5.44,4.59,7.25,3.12,3,1.28.91,2.78,5.13.31.86.37.35.62,1.54a13.36,13.36,0,0,0,.4,1.47c.42,1.3.11,2.13.65,3.26a9.5,9.5,0,0,0,3.52-.51,7.59,7.59,0,0,0,1.92-2.21c1.31-.09,1-.06,1.87.4a9.83,9.83,0,0,0,3.86,1.16l.68-.2c.2-.65.11-.28-.43-.88a23.56,23.56,0,0,1-4.42-7.28,19.39,19.39,0,0,1-1.47-5.19c-.09-1.22-.48-1.73-.6-2.72-.79-6.72,0-22.06-.14-29.8-.06-4.5-.11-8.78,0-13.32.08-2.41.65-3.4.82-5.64.2-2.78-.42-7.37.31-9.78.91-3,.37-6.18.83-9.21Z"/><path class="cls-3" d="M231.39,29.1c-.59,2.24-7.62,3.74-8.36,4.51,1.19,1,4.14-.06,5.73.62a5.64,5.64,0,0,1-2,.14c-1,0-1.3.09-1.53,1,1.82.62,6.1-.2,8.25.51-.65.88-2.58.82-3.63,1a39.27,39.27,0,0,1-4.53.26l-8.42,1.19c-1.45.39-2.81.31-4.17.65a11.07,11.07,0,0,1-1.78.48,18,18,0,0,0-2.3.26,12.64,12.64,0,0,1-1.67.53,16.44,16.44,0,0,0-2.18.34c-.88.32-.37.4-1.76.57-.71.09-1.5,0-1.93.63.91.59,2.84.22,3.71-.15,1.37-.56,2.41-.2,3.72-.59,3.43-1,20.32-2.92,23.44-2.95,5.64-.06,11.37-.17,17.09-.17,2.87,0,5.73.06,8.54.2,1.61.06,5.84,1.3,8.19.4l-.94-.46c-1.22-.25-2.69-.11-3.85-.25-1.85-.2-2.81-.68-4.65-.68a51.57,51.57,0,0,1-10.09-.94,1.31,1.31,0,0,1,1.33-.57c1.22-.05,3.54.29,4.59-.05,1.31-.4.29.08.77-.6-1.59-.51-11.94-.37-15.22-.85l.28-.28a4.25,4.25,0,0,1,2.29-.48c1.31-.06,2.64-.06,4-.06a49.48,49.48,0,0,1,7.49.2,53.05,53.05,0,0,0,7.08.48,137.65,137.65,0,0,1,17,2.21,29,29,0,0,1,3.51.45,9.76,9.76,0,0,0,3.18.6c1.81.23,4.42,1.28,6.26,1.64,1.25.26,2.1.29,2.61,1.11a6.39,6.39,0,0,1-2.29-.45,18.92,18.92,0,0,0-2.64-.23c-1.45-.2-3.12-.94-4.76-.57l-.54.23c-.06,0-.11.06-.17.08.74.71,2.89.51,4.11,1s2,.25,3.94,1a18.27,18.27,0,0,0,2.21.34l5.36,1.92c-1.79,0-2,.17-3.6-.39-1.08-.4-2.38-.14-3.72-.65-1-.43-2.38-.2-3.68-.66a6.25,6.25,0,0,0-1.82-.42l-1.67,0c-.48.17-.22,0-.51.29.43.4-.42.11.74.4a14,14,0,0,1,2.75.36c1.5.68,2.15.34,3.51.85,1.14.43,2.38.49,3.46.94l5.08,1.39a13.1,13.1,0,0,0,1.53.54L310,49.94c.68.28.88.22,1.53.54a30.4,30.4,0,0,0,3.12,1.27l6.09,2.64c2.89,1.33,11.65,5.58,14.26,7.4l2.78,1.58a91.83,91.83,0,0,1,8,5.13c1.59,1.19,3.69,2.3,5.22,3.52a11.13,11.13,0,0,0,1.16.91,9.75,9.75,0,0,1,1.36,1c1.62,1.47,1.36,2.24,4.11,4.45A131,131,0,0,1,368.79,89a4.3,4.3,0,0,0,3.06,1.61c-.37-1.21-1.76-2.15-2.67-3l-8-7.2c-.79-.88-.39.17-.59-1,1.27.23,4.42,2.81,5.44,3.69,1.62,1.39,3.2,2.58,4.82,4.14s3,2.86,4.51,4.45c.93.93,1,1.56,2.8,1.73a16.59,16.59,0,0,1,3.69.93l-.32,2.78c2.58.65,3,1.13,4.34,3,2.38,3.52,0,4.37,2.33,6.84a4.39,4.39,0,0,1,.76,1.13l7.4,11.14c.48.62,1.33,1,1.93,1.81s1,1.68,1.47,2.27a49.4,49.4,0,0,1,5.08,7.85c.56,1.25-.12.77.93,1.17.4-1.73.26-7.66.11-9.93-.08-1.53-.36-1.53-1.19-2.38-1-1-.62-7.25-.31-9.07.14-.88,1-1.67.31-2.55a63.94,63.94,0,0,1-3.43,6.27c-.62,1.1-.22,1.36-1.44,1.89a6.23,6.23,0,0,1-1.28-2.63c-.2-.71-.42-.85-.59-1.45l-1.67-4.65a37.49,37.49,0,0,1-1.73-10.63c0-6.09.59-3.51,2.15-6.23,0-1.05-.28-.94-1-1.73-.46-.51-.8-.91-1.28-1.42-4.22-4.42-8.7-9.13-13.18-13.29l-6.46-5.62c-3.2-2.55.11-1.27-6.21-5.64-.74-.48-.82-.62-1.56-1.13l-6.4-4.25c-2.9-2.07-13.81-8-16.76-9.5-.48-.23-1.13-.54-1.81-.91-3-1.55-13.66-6.32-16.56-7.2l-24.12-7.65a12.73,12.73,0,0,0-2.32-.48c-.94-.23-.68-.48-1.87-.65l-6.24-1.59c-1-.37-1.45-.14-2-.68a10.79,10.79,0,0,1,4.16.34c1.42.42,2.61.23,3.89.51,1.5.28.14.51,3.51.74,1.67.08,2,.9,3.6.42-.71-.93-.71-.4-1.95-.59-1-.15-.6-.46-1.82-.71-.73-.17-1.59-.09-2.24-.29a5.13,5.13,0,0,0-1.92-.62c-3.43-.34-2.41-.65-4.23-.79-3.82-.31-2.72-.54-4.19-.77-3-.45-5.9-.71-9-1-1.73-.17-7.14-1.27-9-.48.37.91,1.3.14,2.49,1.05A.91.91,0,0,0,272,27a.39.39,0,0,0-.17.06l-1,.14-1.28,0c-5.72,0-19.5-.2-23.89.23-1.62.14-3.18.45-4.85.48C238.82,28,232.64,28.14,231.39,29.1Z"/><path class="cls-1" d="M81.72,100.62l-.11.31-.2.2-.2.23-.22.42-.15.26-.25.17-.23.2-.25.36-.17.23-.2.23-.17.23-.26.39-.22.37-.2.23-.17.17L68.26,119a5.92,5.92,0,0,1-1.48,1.9c-3.23,4.36-2,3.2-4.08,7l-2.63,5.44c-.46,1.08,0,1.59-1.17,1.67,0-2.38.23-4.53.26-7s-.06-12.47.4-14.2c1.13-4.39.31-17,2.15-19.61a5.67,5.67,0,0,1,2-1.5l7.43-.06c1.87.06,1.76-.09,3.12.57a2.87,2.87,0,0,1,2,.28,6,6,0,0,1,1.27.79c.51.57,1,2.19,1.53,2.89l.18.23.17.43.19.42.23.2c.94.4.68.28,1.59.08l.45.8,0,.93ZM93.49,141.1c2.15-1.13,3.6.51,3.88-2.3.31-3.06-.91-2.43-.91-5.21s-.82-2.92-1.73-4.79c-1.36-2.87-3.43-5.19-4.59-8.39-.2-.49-.2-.88-.37-1.31s-.31-.48-.48-1c-.31-.91-.2-1.47-.59-2.49-.63-1.59-1.31-7.06-1.62-8A13.42,13.42,0,0,1,86.6,105l-1.45-5a12.27,12.27,0,0,0-1.92-4.34l-1.73-.14c-.85-1.14-1.34-3.69-3.94-4.65-3.72-1.36-9.78-1.08-13.92-1-1.65,0-2.33.93-3.26,1.64a4.22,4.22,0,0,0-1.93,3.06l-.71,4.25c-.4,2.47-.2,7.09-.25,9.78-.06,2.27-.8,3.57-.83,8.9,0,6.07-.62,12-.76,17.92-.11,5.27-.23,8.36,0,13.55.08,2.1,1.36,6.23,1.56,12.5l1,5.81c.14.62.39,1.05.54,1.73a21.8,21.8,0,0,0,.31,2.21l1.44,5.44a15.69,15.69,0,0,0,2.87,6.24c1,1.39,1.56,1.1,3.74,1.1H72c5.16,0,9-2.86,11.76-6.83,3.49-5,2.78-4.22,4.91-9a57.7,57.7,0,0,0,2.89-10.83l1.27-8.11c.43-1.27.26-2.72.49-4.08C94,141.27,93.29,142.66,93.49,141.1Z"/><path class="cls-3" d="M261.69,167.94c0-4.28.34-8.61.26-13.09a48,48,0,0,1,1.11-12.28l1.41-5.24c.37-1.67.85-3.88,1.93-4.71a16.17,16.17,0,0,1,2.27-1c.48-.2.88-.22,1.3-.37,1.36-.48,4.48-2.4,4.14-3.77l-.17,0-.37-.09a.4.4,0,0,0-.2,0,33.33,33.33,0,0,0-4.36-.05c-5.64,0-5.19,1-10.83,1-2,0-4,.91-5.39.63-1.1-.2-1-.68-2.32-.74-1-.06-2,0-2.92-.09-1.93-.11-2.49-1-5.19-.88-3,.12-3.74-.62-3.6,2.16,1.28,1,3.4,1.42,4.76,2.12,2.64,1.37-1,9.9-1.58,11.54l-1.87,6.86a7,7,0,0,1-.51,1.19c-.23.6-.17.85-.34,1.39s-.29.4-.54,1.08-.14.93-.37,1.53a5.25,5.25,0,0,0-.51,1.13l-1.45,3.74c-.22.54-.17.77-.37,1.37a6.2,6.2,0,0,1-.51,1.07,12.9,12.9,0,0,1-.45,1.25c-1.81,3.63-3,8-5.58,2.52-.37-.79-.68-1.67-1.08-2.46-1.22-2.47-1.84-4.74-3-7.18-.32-.65-.77-1.72-1.08-2.46l-1-2.33a7.67,7.67,0,0,1-.91-2.6c-.17-1-.54-1.56-.71-2.58-.37-2.41,0-4-.68-6.21-1.67-5.22.54-4.65-3.4-10.38-1.44-2.12-1.27-2.66-3.91-2.66-1.42,0-2-.26-2.72.57a11.9,11.9,0,0,1-1.39,1.73c-1.11.62-1.56-.2-2.27-.6a10.69,10.69,0,0,1-1.93-1.19c-1.3-.91-2.41-1.56-3.8-2.44a14.33,14.33,0,0,0-3.77-1.84c-.42,0-.25,0-.48.08-.39,1.59.2,2.53-.79,3.75-.88,1-1.76.85-3.49.85l-6,0-2.29.08c-1.11.06-3.37,0-.45,1.7,2,1.19,6.57.66,9,.66,1.36,0,1.7.19,2.32.93a11.27,11.27,0,0,1,2.3,4.11c.48,1.9.17,38.61.17,43.63,0,2.32-2.75,5.27-4.48,6.37-2.32,1.48-4,.23-5.78,2.33a6,6,0,0,0-1.14,1.5c.51,1,.94,1.31,2.41,1.33,1.11,0,2.24,0,3.35,0,3.51,0,18.82.46,20.24-.25-.14-1,.06-.45-.68-.88-.2-.11-.82-.37-1-.45a11.62,11.62,0,0,1-4.68-4c-1.22-1.78-3.2-5.67-3.35-8-.79-11.11-.59-20-.53-30.81,0-2.61-.54-4.65.85-4.62,1.89.08,3.31,6.37,3.91,7.59s1.36,2.7,2,4.09c.23.48.2.76.4,1.27l3.57,8.7a5,5,0,0,1,.4,1.05l2.18,5.33c.11.34.17.79.28,1.16a7.68,7.68,0,0,0,2.7,3.29c1.53-.91,2.32-3.63,3.46-2.78a17.53,17.53,0,0,1,1.64,6.58c-.06,4.08-.57,11.91,1.36,14.71a10.62,10.62,0,0,0,4.39-4.51,33.33,33.33,0,0,0,2.78-6.15c.31-.88,1.08-2.26,1.42-3.2a33.64,33.64,0,0,1,1.16-3.17l2.75-8.28c.26-.71.17-1.25.4-2a16,16,0,0,0,.57-1.7c.51-2.58,1.92-6,2.49-8.33a28.35,28.35,0,0,1,1.16-3.4c1.19-2.47,2.1-7.09,4.74-8.31,1,.4,2.41,2.92,2.86,4.14a21.92,21.92,0,0,1,.2,12.36c-.71,2.83,1.73,2.89,2.32,4,.26,2.58-.31,2.64-.68,4.37a19,19,0,0,0-.25,8.59c.22,1.39.14,3,.39,4.39.46,2.67-.14,2-1.75,2.84a17.27,17.27,0,0,1-3.38,1.44,34.16,34.16,0,0,0-3.51,1.45c-1.31.56-2.1.9-2.72,2.15l.48.43.51.34a4.63,4.63,0,0,0,.93.54c2,.79,16.44-.85,20-.85,4.5,0,8.76,1,8.76-1.9,0-1.17.45-2.3-1.17-2-1.16.19-5,1.27-5.84.48s0-4.71-.42-6c-.62-.63.11,0-.71-.37-.51-.2-.26.08-.71-.31C261.44,178.94,261.69,169.45,261.69,167.94Z"/><path class="cls-3" d="M289.19,155.47c-.51-2,.26-3.12.51-4.7s-.17-3.66.34-5.14l1.56-6.32,1.3-2.63a23.25,23.25,0,0,1,4.09-5.33c1.13-1.19,1.33-1.56,3.68-1.67,6.38-.29,7.65-.94,11.93,4a19,19,0,0,1,3.69,7.2c.23.74.2,1.33.45,2l1.34,4c.08.82,0,1.9.11,2.66l1.42,3.94c.65,2.1.34,2.92.19,4.85s1.62,2,1.2,3.83-3.94,9.89-4.6,11.48l-3.57,7c-1.78,3-1.08,2.38-8.42,2.38-3.85,0-7.14.57-9.21-1.33a6.38,6.38,0,0,1-2.18-3.21c-.29-1.22-.51-1.07-.71-2l-1-4.25a15.59,15.59,0,0,0-.62-2.13c-.79-3.51-.62-8.87-.93-12.67A10.14,10.14,0,0,0,289.19,155.47Zm47.14,9a68.89,68.89,0,0,0,.14-8.14c-.11-3.4-.68-4.42-1.3-7L333,143.14a16.31,16.31,0,0,0-3.32-5l-6-6.49c-1-1.16-4.11-2.46-6.35-4.08-.79-.57-.65-.17-1.62-.43-.62-.17-2.12-1.16-2.75-1.44-3.79-1.53-8.27-1.05-10.45-2-1.56-.71-1.71-.26-3,.25l-8.67,3.8c-1.93,1-3.58,1.9-5.42,2.92a28.8,28.8,0,0,0-8.45,8.19l-3.08,7.32a14.3,14.3,0,0,0-1.17,5.07c-.14,1.79-.76,1.62-.88,3.2-.17,2.81-.05,9.5-.05,12.53,0,5.39-.23,3.15,2.18,6.1s2.32,5.81,2.89,7.54c.28.82,1.48,3.06,2.69,3.54l4.74,1.53c.59.17,1.13.17,1.7.34s.85.37,1.53.54l11.88,2.78a4.92,4.92,0,0,0,1.53.51c3.46.45,6.35,1.44,8.7,1.73,1.93.22,1.81.31,3.17-.65a25,25,0,0,1,2.58-1.59,11.51,11.51,0,0,0,1.34-.74c1.33-1,3.57-2.07,3.91-2.32l4.87-3.46c3.77-3,6.81-7.51,9.33-11.54C336.1,169.13,336.13,166.78,336.33,164.43Z"/><path class="cls-3" d="M288.65,219.39c.85,1.7,2.81,3,4.45,4.25.54.4,1.11.66,1.65,1.05,7.34,5.28,5.69,6.21,4.65,16.59-.74,7.05-.2,5-.2,10.82,0,7.63,0,15.28,0,22.91,0,2,.34,3.88-.77,5a11.62,11.62,0,0,1-3.49,2.19c-1.38.45-5,1.33-5.86,2.63-.31.43-.57,1.79,0,2.19.31.19,1.73.08,2.55.36s.85.63,2.15.68c2,.15,3.46-.14,5.25.46,2.72.93,12.64.39,16.83.48,3.94.06,2.22-.43,4.65-1a25.64,25.64,0,0,1,5-.74,11.9,11.9,0,0,0,2.33-.56c2.35-.54,11.62.11,13.75-.46,1.73-.45,2.89-.85,4.42-1.39,2.78-1,.45-1.64.74-9,0-1,0-2,.11-2.92s.37-1.11.62-2a12.19,12.19,0,0,0,.12-2.83c.08-.85.42-1.05.79-1.84a8.76,8.76,0,0,0,.06-4.82l-.8-.11c-.62,1.07-1.1,6.88-1.27,7.48-.51,2.1-5.59,8.11-7.32,9.75-1,1-3.65,3.6-5.07,3.54a8.67,8.67,0,0,1,1.64-6.12l2.9-4.56-.54-.63c-1.39.63-4.79,4.54-6,5.9-1,1.08-1.93,2-2.95,3.09-1.28,1.36-1.28,2-3.94,2.15-4.62.31-6.75-1.1-8.42-3.77s-1.73-3.85-2-6.94c-.14-1.73.4-2.07-.05-2.47-1.22-.51-1,1.14-2.58.29-.37-.86-.37-11.26-.06-12.28a6.48,6.48,0,0,1,3.32-1.1c1.33-.17,2.24-.57,3.48-.71,2.27-.31,5,.45,5.87,2.52,1.79,4.05,1.79,2.61,3,7.57.08.42.31,4.05,1.73,4.48.59-1.25-.2-2.84-.46-4.08a10.92,10.92,0,0,0-.42-2,32.75,32.75,0,0,1-1.45-10.8c1.08-.51,2.21-.2,3.38-.42a30.54,30.54,0,0,0,1-10.77c-.26-2.64,0-3-.65-5.39-.85-3.32-2.84-2.44-3.26-1.76-.48.91.17,2.55.05,3.86l-1.07,7.23c-.51,2.77.42,2.07-2.24,3.79-3.86,2.53-.34.91-4.54,1.71-3.14.59-3.4,1.07-7.11,1-1.28-.06-3,.14-2-1.08,2-2.29,2-2.69,3-5.38.76-2,1.78-7.86,2.83-9.42a14.61,14.61,0,0,1,2.1-2.06c.77-.74,1.28-1.22,2-1.93-.06-1-.43-1.16-.63-2.35-.11-.63-.14-.68-.28-1.25-.2-1,0-.88.14-1,.85-.63,9.75-.23,11.6-.26,3,0,2.29.37,3.48,2.36.94,1.61,1.39,3.57,2.35,3.48.8-.08.68-1.84,2.1-2.07,1,1.65,0,5.64.57,7.71,1,0,.88.06,1.1-1.05a3.7,3.7,0,0,1,.6-1.47c.91-1.93,0-1.05,1.64-3.34.23-.35.23-.37.4-.66,1-1.56,2.92-2.21,3.18-2.86.25-5.19.48-13.66-1.25-17.74l-1.82-.06a32.45,32.45,0,0,0-3.23,5c-2.32,3.75-1.9,3.35-4.76,3.32-7.48,0-26.16.4-32.2-.62-1.31-.23-2.67-.09-3.94-.2C297,218.71,290.3,218.09,288.65,219.39Z"/><path class="cls-3" d="M121.63,126.76a18.45,18.45,0,0,0,2.41,2,9.51,9.51,0,0,0,2.58,1.84c2.27,1.19,6,4.42,6.32,6.92.69,5.72-1,6-1.47,7.2-.59,1.41-.25,37.1-.25,38.6,0,1.7-.37,1.93-1.71,2.58a30.65,30.65,0,0,1-3.06,1.11c-1.33.51-3.85,1-4.82,3.2,2.13,2,7.23,1.76,10,2.38,3.46.83,5,.32,8,.2,5.45-.23,7,.68,13.44-.65a19,19,0,0,0,1.84-.62c5.47-1.59,9,0,14.4-1,3.94-.8,5.42-.09,8.36-1.82a4.46,4.46,0,0,0-.53-2.66c-1.14-3.12.62-8.82,1.21-11.68.23-1,.12-2,.34-3,.32-1.19,1.08-4.34.68-5.27-1.1-.4-1.24-.14-2,.37-.14,1.47.25,5.24-.85,7.59-1.79,3.89-4.11,6.44-7.23,9.42-2.13,2-3,3.26-4.56,2.86-.4-2,.08-2.86,1.47-5.1.54-.88,2.75-3.29,1.81-4.26-.65-.65-1,.17-2.89,2.1L162.4,182l-4.14,4.16c-.85.71-4,.54-5.25.43a5.47,5.47,0,0,1-3.43-2.24l-2.92-5.44c-.45-1.56.09-3.74-.22-5.16-1.62-.31-.91.39-2.1.22-.71-1.33-.34-4.3-.34-6.17s-.28-4.6.37-6.13c1.25-.34,2.55-.14,4-.42,3.6-.77,4.84-1.08,6.63.62l2,2.21c2.09,3.35,1.53,7.23,3.85,12.79l1.11-.54s0-.12,0-.17a.44.44,0,0,1,0-.17s-.17-.63-.17-.65c-.29-1.22-.15-3.09-.46-4.12-.88-3.06-.45-2-1.9-4.16-.53-.82-.25-1.65-.31-2.81s-1.9-4.53-.34-6.15c1.36-1.42,1.31-.34,2.41.06,1.45-1.31,2.07-8.62,1.59-11.28a16.69,16.69,0,0,1-.4-2,10.29,10.29,0,0,0-1-4.39l-2.38.14c-1,1.27-.45,4.19-.45,6.12,0,12.76-6.44,8.7-10,10.26a9.49,9.49,0,0,1-5.64.15c0-1.34.62-1.48,1.19-2.36,1.79-2.78,1.9-5.21,2.49-7.68s0-3.6,1.65-5.24a35,35,0,0,1,3.49-3.35c0-1.81-1-3-.54-4.73,1.67-.43,8.36-.17,10.65-.17,3.46,0,3.15-.2,3.86,1.56.48,1.22,1.16,2.55,1.73,3.68,2-.11,2.1-1.84,3.34-1.05.88.8.2,5.28.54,6.78.91-.29.4.39,1.36-2.24.2-.51.2-.85.37-1.33,1.42-4,3.09-3.24,3.77-4.34.34-.62.29-16.7,0-17.12s-.37-.37-1.33-.54a3.77,3.77,0,0,0-1.39-.06l-4.67,8.19a23.19,23.19,0,0,1-7.23-.45c-3.21-.74-20.07-.34-24-.34C135.24,126.33,122.94,125.88,121.63,126.76Z"/><path class="cls-3" d="M225.52,216.42c-1.36-.71-3.71-3.52-5.38-3-.48,1.08,1.08,1.81.37,4.34-3.26,1.05-8.2-1.68-5.33,2.94,1,1.56,2.78,1.82,4.65,2.87,3.11,1.76,3.4-1.87,9.24,8.9.37.71,1,1.64,1.36,2.41l3.8,7.23c4,6.8,4.42,7,8.19,15.76l2.44,6.69a8.54,8.54,0,0,1-.83,6.09,6.34,6.34,0,0,0-.73,1.13c-1.62,3.09-.8.2-1.7,3.75-.77,2.94-3.52,3.68-6.07,4.9-1,.48-2,.23-3.26.6-3.49,1-6.32,3.88-4.62,5.18.91.57,8.76.2,10.55.2,4.33,0,7.11,1.48,9.24,1.56.39-1.1.31-1.5,1.75-1.56,3.52-.14,4.71-.57,8.79-.79,1.13-.06,1.79-.37,2.89-.43s2.13,0,3.15,0c1.56,0,3.06.09,3.74,1.05.31.43.06,1,2.07.94l1-.14s1.22-.8-.17-2.41a5.31,5.31,0,0,1-1.27-2.07c-.68-1.67-4-3.29-5.73-4-.51-.22-4-1-4.48-2s-.17-14.2-.17-15.9c-.06-4.26-.59-5.56.8-9,.28-.73.28-.42.59-1.07l9.18-18.29c1.14-2.27,1.34-2.35,2.36-4.11,1.73-2.89,2.92-3.06,5.64-4.17,1.1-.45,4.25-2.8,4.87-4.59-2.15-1.9-17.68-1.56-20.72-1.56a3.76,3.76,0,0,0-3,1.25,5.25,5.25,0,0,0-2.07,2.32c-.23.6-.17,1.22-.42,1.88,0,0-1.56,2.21,1.67,1.41.76-.2.93-.42,1.61-.62a6.59,6.59,0,0,0,1.65-.65c.68-.31,1.1-.4,1.56,0s1.1,4.56,1,5.3l-5.47,11.05c-.65,1.53-.88,3.35-1.79,4.51-.25.34-2.15,2.61-2.49,1.05v-.82c.22-2.56-1.53-.37-2.78-.46l-1.42-2.89c-.39-.82-1-1.9-1.39-2.81L247,235.61a19.34,19.34,0,0,1-1.9-6.64c-.05-1.41-.05-2.75,0-4.16,0-1.87.56-1.7,1.36-2.78,1.84-2.58,1.21-3.23-.94-3.23-6.94,0-2-1.82-9.3-.2C232.53,219.42,228.59,218,225.52,216.42Z"/><path class="cls-3" d="M182.1,259.45c-1.56-2.27.93-5,1.24-7,.52-3.12,3.58-10.94,6.35-4.36,1.25,2.92,2.84,5.67,2.9,9.64,0,2.49-2,1.75-4.4,1.75C186.32,259.5,183.91,259.64,182.1,259.45Zm22.76-9.61a19.47,19.47,0,0,1-2.35-2.67,14.27,14.27,0,0,1-1.28-12.24l1.56-3.52c-.76-.42-1.59-.79-2.47-1.25s-1.44-1-2.23-1.47a8.61,8.61,0,0,1-3.15-4.17,17.46,17.46,0,0,1-.2-3.65,22.15,22.15,0,0,0-.71-2.75c-.88-5-6.43-10-5.81-5.7.34,2.27,1,4,.43,6.6a36.39,36.39,0,0,1-4.17,10.41c-.62,1-.48,1.9-.45,3.31a4.39,4.39,0,0,0,.7,3c.46,1.39-1.7,5.13-2.26,6.69-.32.85-.37.59-.6,1.25s-.14.9-.4,1.53-.31.22-.51,1.1l-1.61,5.61c-.74,4-1.7,8.56-5.42,9.22l-6.35,1c-1.16.23-.68,1.27-.42,2.44.2.79.68,1.84,1,2.6,1.28.06,2,.12,2.75-.53,2.07-1.82,1.76-1.25,1.87,3.79a11,11,0,0,1-.71,3.83c-.68,2.5-1.89,4.28-4.3,5.08a10.13,10.13,0,0,1-4.11.65c-3.21,0-3.89-.29-7.32,2.07-1.1.73-1.87,1.3-1.27,3,1.07.28,3.34.28,3.88-.62s.14-1,1.39-1.14c2.44-.28,2.66.48,4.62,2.47,1.62,1.61.94,1.3,3.06.82.71-.14,1.5-.08,2.21-.26a13,13,0,0,1,1.76-.53c1.45-.23,3-.12,4.42-.32,4.62-.65,4.17,0,7-2.55a7.92,7.92,0,0,0-1.16-2.86c-2-.71-2.44-.71-4.05-2s-2.75-.62-2.05-3.48l3-9.07c1.39-.12,1.25.39,2.58.65,1,.17,1.7.2,2.69.42,1.87.43,3.86.15,5.53.51,3.68.83,6.46,2,8.05,4.28,1.67,2.5.26,2.84-.74,5.53l-1.07,3.35c-.71,2.43-3.12,7.28-2.73,9.21a5,5,0,0,0,4.63-.48c1.53-.91,1.24-1.76,3.65-1.76,3.06,0,1.84,1.33,3.15,2.49.71.66,1.05.23,1.87.06,1.27-.25,1.13,0,2.18-.57,1.25-.65,2.5-1.55,4.31-1,.94.29.71.49,2,.68.85.12,6.83,2.81,10.49-.39-2.61-3.26-4-2.41-5.07-6.52-.49-1.79-2.33-4.11-3.15-5.5-.48-.82-.68-1-1.16-1.82-3.77-6.43-1.59-6.54-7.06-10.43-3.66-2.6-3.29-2-3.23-5.33,0-1.33.08-1.07.62-1.87s.48-3.12.11-4.28A8.65,8.65,0,0,0,204.86,249.84Z"/><path class="cls-3" d="M132.09,215.31c-.9-.91-5.3-.31-6.43.06-1.73.51-4.54.39-5.81,1.07-2,1.08-1.48,2.24-4.74,2.22l-17.29-.06c-1-.2-1.16-.77-2.12-1.22a11.22,11.22,0,0,0-5.39-1.5c-1.81,0-1.84,0-1.39,1.16,1.25,3.17,2.89,3.51,6.89,5.41a12.61,12.61,0,0,0,1.11.6l2.15,1.13a9.88,9.88,0,0,1,2,1.59,2.45,2.45,0,0,1,.9,2.38l.15,20.41c0,2,.45,11.91,1.1,12.76.54-.06,0,.17.54-.37,1-1.08.91-1.16.88-2.58,0-2.72-.26-12.64.17-13.89,1.33-.43,1.76.79,1.84,2v19.16c-.17,1.34-1,1.28-1.59,2.21s-.34,2-.68,3.07c-.65,1.87-2.83,6.18-4.33,7.31-1,.76-5.53,2.24-7,2.58-.82.17-.73.31-1.3.54-1.64.65-4.85.76-3.46,3.65.63.63,24.3.26,28.09-.19,1.31-.15,2.75-.66,4.17-.71s3.26,0,4.79,0l23.76.2c2.21,0,2.38,0,3.2-1.51a12.2,12.2,0,0,0,1.87-7.25,8.19,8.19,0,0,0-1.62-.66c-.59-3.62.23-16-.42-17a5.14,5.14,0,0,0-2.44,1.9,20.15,20.15,0,0,0-1.61,2.8L146.92,266c-.17.68-.14,1.22-.34,1.93s-.34,1.08-.48,1.59l-1,3.51a16.74,16.74,0,0,1-1.53,2.92,13.37,13.37,0,0,1-4.48,4.25c-1.53.91-1.53.77-3.74.77a20.77,20.77,0,0,1-4.2-.17l-3.17-1.33a25.47,25.47,0,0,1-5.44-3.52,14.35,14.35,0,0,1-3.18-3.51,16.29,16.29,0,0,1-2.41-4c-1.76-4.82-1.19-7.11-.82-12,.11-1.64.45-2.35.57-3.94s.11-2.89.17-4.39a13.85,13.85,0,0,1,.82-3.55c.28-1.24.22-2.69.54-3.74.53-1.87,1-1.08,1.13-3.32.14-4.28,1.28-3.88,1.59-7.42.39-4.11,0-3.89,3.31-5.56,4.28-2.18,6.52-3.15,7.91-7.68C132.6,215.28,132.09,215.31,132.09,215.31Z"/><path class="cls-1" d="M289.19,155.47a10.14,10.14,0,0,1,.6,2.07c.31,3.8.14,9.16.93,12.67a15.59,15.59,0,0,1,.62,2.13l1,4.25c.2.91.42.76.71,2a6.38,6.38,0,0,0,2.18,3.21c2.07,1.9,5.36,1.33,9.21,1.33,7.34,0,6.64.65,8.42-2.38l3.57-7c.66-1.59,4.14-9.53,4.6-11.48s-1.31-2-1.2-3.83.46-2.75-.19-4.85l-1.42-3.94c-.14-.76,0-1.84-.11-2.66l-1.34-4c-.25-.68-.22-1.27-.45-2a19,19,0,0,0-3.69-7.2c-4.28-5-5.55-4.34-11.93-4-2.35.11-2.55.48-3.68,1.67a23.25,23.25,0,0,0-4.09,5.33l-1.3,2.63L290,145.63c-.51,1.48-.08,3.49-.34,5.14S288.68,153.46,289.19,155.47Z"/><path class="cls-3" d="M420.43,123.69c-.17,3.43-.65,2.75-.76,4.68-.34,6.75-.94,7-.31,14.86a73.86,73.86,0,0,1-.23,10.31,150.53,150.53,0,0,0,.43,20.58,21.85,21.85,0,0,0,2.26,8.28,22.66,22.66,0,0,0,4.34,6.26c.85.91,4.59,5,5.24,5.33a7.18,7.18,0,0,0,1.34-2.07c1.5-2.52,2.26-.22,1-4-1-3-1.48-5.73-2.81-9.24-.23-.57-.28-.43-.51-1s-.2-.88-.37-1.3c-.42-1.08-1.64-3.52-1.3-4.48.65.28,1.19,1.39,1.47,2s.14.26.46.8c1.24,2.07,3.62,8.25,4.59,10.43l1.44,3.51c.23.63,4.2,10.21,4.62,10.38,1.28,0,1.39-.91,2.81-1.08.65-.08,1.33-.08,2-.17,2.16-.23,2.53,1.11,1.48-4.36-.29-1.54-.2-3.24-.51-4.54a13.37,13.37,0,0,1-.54-2c-.46-3.52-.71-2.5-.85-4.11,0-.17-.09-1-.09-1.11-.42-1.27.23-.45-.79-.76a5.73,5.73,0,0,0-.2,2c0,1.41,0,1,.71,1.64-.28,5.25.45,3.77.76,4.93-.45.34,0,.23-.85.23-.08-.94-.14-1.64-.22-2.47a4.8,4.8,0,0,0-.14-1.33c-.23-.74-.26-.25-.43-1a21.43,21.43,0,0,1-.28-2.47c-.12-1.3-.37-1.16-.63-2.29-.17-.74-.17-1.65-.36-2.33a7.42,7.42,0,0,1-.6-2.24l-4.22-15.5c-.23-.82-.57-.91-.8-2l-1.56-4.34c-.39-1.64-4.56-12.27-5.55-14.17-.37-.71-.71-1.36-1-2a73,73,0,0,0-7.39-12.41,9.13,9.13,0,0,1-1.17-1.76A5.58,5.58,0,0,1,420.43,123.69Z"/><path class="cls-1" d="M404.48,222.2c.59.23.51.4.62,1.16l1,3.32c.68,1.95,2.21,5.87,2.41,7.79a6.77,6.77,0,0,1-.59,3.43c-1.17,2.67.73,5.67-1.17,7.17-2.8,2.16-2.18,2.39-2.12-2.35.11-7.09-.09-12-.34-19.36A2.12,2.12,0,0,1,404.48,222.2Zm7,13c0-2.27-3.38-11.82-4.59-15-1.11-2.92-.23-3.06-5.28-4.56-.9-.26-.76-.46-1.75-.65a8.86,8.86,0,0,1-2-.6,12.87,12.87,0,0,0-2.18-.34c-2.87-.48-1.42-.79-6.55-.71-2.67,0-1.45-.85-4.14-.88-1.59,0-3.52-.42-3.46,1.22l2,7.8a36,36,0,0,1,.88,4,12.56,12.56,0,0,1-1,8.28c-1.21,2.55-2.72,4.82-3.4,6.32-1.5,3.23-1.95,3.77-1.75,8.19.17,3.09,1.92,4.11,4.53,5.36s5.44,1.08,8.9,1.05a24.29,24.29,0,0,0,12-3.8l6.24-4.82c1.5-1.39.08-3.32.65-6.92C410.8,237.42,411.48,237.19,411.48,235.24Z"/><path class="cls-3" d="M89.06,85.29l.12.28.22.2.26.14.23.2.17.25.22.17.34.2c1.14.62.71.85,2.27.85,4.14-4.19,9.84-10.37,14.09-14,1-.88,2-1.68,3-2.61.54-.48.94-.8,1.42-1.25l14.48-11.17a10.84,10.84,0,0,1,1.59-1.1l10.29-6.61,17.8-9a20.12,20.12,0,0,1,2.92-1.45,14.76,14.76,0,0,1,1.87-.79c1.31-.37,1-.45,2.13-.82l20.38-8,15.31-4.22a12.32,12.32,0,0,0,2.35-.62c.71-.17,1.53-.12,2.33-.34a6.51,6.51,0,0,1,2.21-.6c2.26-.17,3-.59,5.24-.71,1.47-.79,6.8-.88,8.65-1.39,5.3-1.41,12.58-.45,17.63-2.55,2-.82,6.09-1.78,6.91-3.14-1.7-1.51-13.69.17-17.2.37a16.69,16.69,0,0,0-3.23.51c-1.11.22-2.27.22-3.43.34-1,.11-2.13.45-3.09.65a28.93,28.93,0,0,0-3.06.45l-6.33,1.25c-1.36.14-1.7.57-2.94.76a38.83,38.83,0,0,0-6,1.48l-11.48,3.34a88.64,88.64,0,0,0-11.06,3.91c-1.81.86-3.51,1.31-5.36,2.16-.79.4-1.73.82-2.6,1.16l-2.64,1.11c-.68.31-1.79.9-2.47,1.27l-8.84,4.28a27.39,27.39,0,0,1-3,1.59c-.82.17-.42.06-.71-.08,1.17-1.22,4.91-3,6.41-4,5.56-3.66,11.91-6.55,18.14-9.33,3.06-1.36,6-2.38,9.22-3.51a14.78,14.78,0,0,1,1.41-.62l8-2.64c1.25-.34,1.11-.77,3.18-1.19-1.25-1.16-.6-.68.71-1.16.76-.26.34-.29,1.07-.57L202,17.65c1.16-.14,3.68-1.36,5-1.56a14.19,14.19,0,0,0,2.61-.68c1-.28,1.92-.08,2.89-.48.82-.34,7.25-1.25,8.42-1.36a22.41,22.41,0,0,0,2.55-.54c1.07-.26,1.95-.17,3.06-.34.91-.11,1.61-.4,2.58-.57s2-.08,3.09-.2,1.36-.53,2.63-.73a9.66,9.66,0,0,0,2.72-.48c-1.3-.63-4.62.17-6.2.25-5.25.26-3.46.45-6.21.77a26,26,0,0,0-3,.34l-5.84,1.22c-1,.25-2.27.11-3.21.36s-.34.32-1.13.51a13.6,13.6,0,0,1-1.59.15L199,16.94c-2.66.91-5.41,1.5-8.1,2.5-1.71.62-3.43,1-5,1.78l-5,2.1c-2.1.79-3.94,1.76-6.09,2.41l-7.54,2.92c-.51.2-.94.23-1.45.45s-.45.29-1.1.54c-2.47.91-4.79,2.18-7.18,3.23-5.89,2.58-11.56,5.87-17.17,9-.94.54-1.34.9-2.19,1.39-2.12,1.19-4.3,2.8-6.4,4l-10.24,7.26c-2.46,2.21-5.3,4.08-7.76,6.18-1.28,1.07-2.47,2.21-3.74,3.34l-3.6,3.26c-3.69,3.38-7,7-10.63,10.43L89.63,84C89.09,84.55,89.09,84.26,89.06,85.29Z"/><path class="cls-3" d="M427.86,286.18c.71,0,.4-.09,1-1l2.86-4.45c1.25-1.71,3.6-4.23,1-6.38-2.39-2-3.52-2.13-5.19-4.2a13.11,13.11,0,0,1-1.82-2.95l-.76-3c0-.88,0-.45.23-.82.82-.77,5.64,2.58,6.63-6.07.08-.68.31-3.43-.26-3.88-1.22-1-3.43,4-4.48,4.25-.73-1.5.71-9.24-.34-10a26.94,26.94,0,0,0-2.18,3,17.77,17.77,0,0,1-2.41,2.78c-2.12,2.15-1.42,2.41-2.21,3a19.68,19.68,0,0,1-1.78.91l-1.59.93c-.54,1.36.48,2,0,3.49-1.62.4-4.76-1.28-5.7.51l4.08,7.11c4.48,7.83,5.22,7.23.74,10,.2.85,2.24,2.75,3,3.37,1.1.94,1.41.23,2.6.71s.54,1.25,1,2.13c.79-.14.45-.2,1.1-.54,1.76-.85,1.79-1.05,3.32-1.13A16.74,16.74,0,0,1,427.86,286.18Z"/><path class="cls-3" d="M412.58,87.47l.74-.23.17-.17c.17-1.25-2.18-3.37-3.63-5-2.8-3.14-5.72-5.84-8.67-8.81-3.12-3.21-5.62-5.36-9-8.28-.85-.74-1.39-1.28-2.29-2.07-2.33-2-12.7-10.09-14.57-11.25l-9.13-6.1L336.36,30a4.36,4.36,0,0,0-.77-.26c-.79-.31-.28-.11-.7-.36-.66-.37-.77-.68-1.51-.15.43.77-.2.15.68.54L355.15,42c4.17,2.32,11.74,7.37,15.79,10.06,1.73,1.16,3.35,2.27,5,3.52l19.16,15.16c2.72,2.64,5.81,4.85,9.1,8.22Z"/><path class="cls-3" d="M426,211.91c.54-1.87.31-6.46.17-8.59-.11-1.47-.11-3.06-.14-4.54a19.3,19.3,0,0,1,0-2.29c.11-1.05.48-.77.25-1.48l-.45-.17-.65-.14c-1,0-1.9-.11-2.86-.25-1.11-.14-1.34-.54-2.5-.46-.34,1.62.26,2.27.2,3.75a10,10,0,0,1-1.45.22c-.9.23-.31.2-1.05.57-1.16-.71-.53-.57-1.67-2.64a9.76,9.76,0,0,1-.39-1.1c-1,.11-.83.37-1.76.56-1.84.37-4.48-.19-5.84,0-.68,1-.6,1.22-1.48,2-2.18.11-1.55-.77-2.6-1.68-.57.74-.57,4.26-.23,5.14.51.76-.11.14.79.51l3.89,1.33c.62.2,1.16.14,1.75.37l4.6,1.64c.34.14.9.4,1.39.65a17.94,17.94,0,0,1,2.58,1.59c1.84,1.39,1.33.31,3.28.88.74.2,1.7,1.42,2.21,1.93Z"/><path class="cls-1" d="M182.1,259.45c1.81.19,4.22.05,6.09.05,2.41,0,4.42.74,4.4-1.75-.06-4-1.65-6.72-2.9-9.64-2.77-6.58-5.83,1.24-6.35,4.36C183,254.43,180.54,257.18,182.1,259.45Z"/><path class="cls-3" d="M69.65,106a.26.26,0,0,0-.06.17.51.51,0,0,1-.08.14,10.35,10.35,0,0,0-.8,3.37c-.14,1.45-2.44,10.09-2.44,10.38.06,1.05-.08.65.51.85a5.92,5.92,0,0,0,1.48-1.9l10.46-14.4.17-.17.2-.23.22-.37.26-.39.17-.23.2-.23.17-.23.25-.36.23-.2.25-.17.15-.26.22-.42.2-.23.2-.2.11-.31.23-.4,0-.93-.23-.65c-1.07,0-1,.19-1.81-.23l-.23-.2-.19-.42-.17-.43-.18-.23c-.9.29-2.29,2.13-2.8,2.9l-3.6,4.9c-1.28,1.5-2.41,4.08-3.57,4.45C68.91,107.93,69.48,107.51,69.65,106Z"/><path class="cls-3" d="M253.5,21.34c.94,1.07,3.91.9,5.3,1,2,.14,4.26.11,6.21.31,1.76.17,3.6.62,5.44.68a29.35,29.35,0,0,1,6,.54l13.84,1.95c1.56.09,1.22.54,4,.77,1.67.14,2.35,1.16,4.16.56-.68-1-1.3-.39-2.49-.65-.85-.17-.68-.71-2.33-.82-2.26-.14-1-.25-2.41-.71a24.3,24.3,0,0,1-2.77-.54,9.89,9.89,0,0,0-2.72-.48c-1.05-.17-1.37-.54-2.58-.71-4.91-.59-12.28-2.24-17-2.43l-11.26,0C253.9,20.91,253.84,21,253.5,21.34Z"/><path class="cls-3" d="M404.25,223.36c.25,7.34.45,12.27.34,19.36-.06,4.74-.68,4.51,2.12,2.35,1.9-1.5,0-4.5,1.17-7.17a6.77,6.77,0,0,0,.59-3.43c-.2-1.92-1.73-5.84-2.41-7.79l-1-3.32c-.11-.76,0-.93-.62-1.16A2.12,2.12,0,0,0,404.25,223.36Z"/><path class="cls-2" d="M69.65,106c-.17,1.5-.74,1.92-.51,3.37,1.16-.37,2.29-2.95,3.57-4.45l3.6-4.9c.51-.77,1.9-2.61,2.8-2.9l.18.23.17.43.19.42.23.2c.79.42.74.28,1.81.23l.23.65,0,.93-.23.4-.11.31-.2.2-.2.23-.22.42-.15.26-.25.17-.23.2-.25.36-.17.23-.2.23-.17.23-.26.39-.22.37-.2.23-.17.17.17-.17.2-.23.22-.37.26-.39.17-.23.2-.23.17-.23.25-.36.23-.2.25-.17.15-.26.22-.42.2-.23.2-.2.11-.31.23-.4,0-.93-.45-.8c-.91.2-.65.32-1.59-.08l-.23-.2-.19-.42-.17-.43-.18-.23c-.48-.7-1-2.32-1.53-2.89a6,6,0,0,0-1.27-.79,2.87,2.87,0,0,0-2-.28c-.26,1-1,2.06-1.36,3s-.71,2.24-1.11,3.29l-1.19,3.14C70.41,103.17,69.7,105.67,69.65,106Z"/><path class="cls-3" d="M420.43,116.1l-.08,2,.71.88a7.11,7.11,0,0,0,.59,1c2.16,3,8.37,15.36,10,19a9.91,9.91,0,0,0,.37,1.08c1.19,2.46,1.56,3.77,2.41,5.72l.88,2.44a18.16,18.16,0,0,1,.93,2.21c.63,1.28.34,1.45.6,1.87.37.57-.17.14.62.48.46-1.36,0-1.73-.39-2.77L430.58,133c-1.36-2.81-2.21-5.07-3.74-7.94l-5.78-9.41C420.46,115.93,420.92,115.56,420.43,116.1Z"/><path class="cls-3" d="M276.66,13c.6,1,.45.31,1.79.82a7.1,7.1,0,0,0,2,.73l8,2.39c.51.08,3.74.93,4.11,1.07l.19-.42c.29-.37-.11-.2.49-.37a1.42,1.42,0,0,1,1.16.23,17.74,17.74,0,0,0,2.72.45l4.9,1a13.84,13.84,0,0,0,2.44.45l4.93,1.16a3.27,3.27,0,0,0,2.61.26c-.23-.71.4-.34-.65-.71-.34-.11-.82-.06-1.25-.17-1-.28-.37-.45-2.1-.74l-15-3.94-11.65-1.84C280.29,13.26,277.46,12.35,276.66,13Z"/><path class="cls-3" d="M196.72,6.94a6.16,6.16,0,0,0,2.36-.8,3.53,3.53,0,0,0-2.36.8,3.74,3.74,0,0,0-1.84.42,12.69,12.69,0,0,1-2,.54l-7.06,2.49a17.36,17.36,0,0,0-2.95,1.19l-.39.32c-.49-.09.59-.32-.34-.06a1.06,1.06,0,0,0-.49.25c-.85-.22-.28-.08-.42.2-.74-.17-.65,0-.91.4.6,0,.26.08.63-.11s.08,0,.28-.29c.76.09.4.12.42-.2.74,0,.46.15.83-.19l8.64-2c1-.32,2.16-.26,3.15-.66s.25-.34,1.22-.48c.56-.08,1.27,0,1.87,0,1-.08,1.67-.56,2.78-.71a12.83,12.83,0,0,0,3.09-.42,10.74,10.74,0,0,1,3.28-.48,17.61,17.61,0,0,0,2.75-.77c.83-.11,2.53,0,3.52,0a18.49,18.49,0,0,0,2.95-.6l10.17-.82c1.68-.06,5.5-.12,6.72-.54a3.88,3.88,0,0,0-2.12-.48,49.09,49.09,0,0,0-7.49.25,19.66,19.66,0,0,1-4.59.48l-9,1.08c-.91.17-1.34.46-2,.54-1.36.14-2.21-.23-3.48.43-1.59.79-1.11.25-3.38.48-1,.08-1.1.37-1.89.56a10.55,10.55,0,0,1-2.87.09c.54-1-.17,0,.43-.48C196.16,7.25,196.7,6.94,196.72,6.94Z"/><path class="cls-3" d="M404.82,136.42c.48-.73,0-.62-.51-1.76-.91-2.09-3.94-7.42-5.14-9.41-.31-.51-.85-1.22-1.16-1.75l-10-14.77c-.29-.46,0-.4-.54-.63-1.08,2,2,4.68,3.63,7.15,1.53,2.29,3.37,4.53,4.87,6.8l3.4,5.39c.32.56.71.9,1.22,1.67a7.23,7.23,0,0,1,.49,1l1,1.93a32.27,32.27,0,0,0,2.12,3.69C404.59,136.22,404.28,136.05,404.82,136.42Z"/><path class="cls-3" d="M201,31.37a9.16,9.16,0,0,0,1.76-.51,15.74,15.74,0,0,1,2-.26c1.34-.14,2.1-.59,3.6-.73a22.32,22.32,0,0,0,3.8-.63c1.39-.28,2.78-.19,4.2-.45,2.55-.71,3-.23,5.72-1.08a9.15,9.15,0,0,1,2.33-.25c1.61-.09,2.69-.74,3.94-.85s3.06,0,4.16-.48c-2-1-5.58.14-6.46.25a18.62,18.62,0,0,1-2.49.06l-12.45,1.81c-.51.12-1.07.37-1.75.51s-1.59.12-2.33.26a11.28,11.28,0,0,0-1.61.59c-.77.17-1.56.12-2.19.34-1.24.51-.08.46-1.93.63a3.84,3.84,0,0,0-1.75.54Z"/><path class="cls-3" d="M43.46,308.15c.31-.06.22-.12.22.19a7.68,7.68,0,0,0,2,.32,13.17,13.17,0,0,1,1.54.51,3.88,3.88,0,0,0,2.09-.15c-.25-.76.12-.25-.56-.79l-1.85-1.7c-.85-.82-1.61-1.5-2.46-2.33-1.22-1.19-3.91-4.36-4.71-4.56a1.14,1.14,0,0,0-.05,1.22l3.2,6.35C43.23,307.78,43.2,307.49,43.46,308.15Z"/><path class="cls-3" d="M174.16,38.83c.65-.8.71-.6,1.45-.94l2.83-1.56c.79-.25,1.25.11.79-.88l-3.31,1.31c-.63.34-1,.28-1.65.62a9.11,9.11,0,0,1-1.81.68c-2.21.82-15.48,6.89-17.38,8.25l-1.5,1c.65.34.65.31,1.25,0a1.16,1.16,0,0,0,.25-.2L168.86,41C170.36,40.27,172.66,39.34,174.16,38.83Z"/><path class="cls-3" d="M399.23,89.93l1.31-.08c.31-.65,0-.54-.63-1.13l-7.57-7.23c-3.68-3.49-3.65-3.32-6.77-5.93l-1.45-1.27c-.73-.57-.2-.43-1-.49.2.8-.06.17.37.69l7.82,7.17C392.23,82.56,398.47,88.72,399.23,89.93Z"/><path class="cls-3" d="M422.08,98.66c1.1.54,1.9,2,2.58,3s1.59,1.87,2.38,3l2.27,3.18c.71,1.22,1.33,1.61,1.73,2.44.31.59-.15.45.65.79.2-.54.25-.25,0-.79s.06.11-.28-.34a1.72,1.72,0,0,1-.32-.54,14.68,14.68,0,0,0-.9-1.82c-.29-.48-.71-1-1.08-1.61l-3.32-4.79A29.82,29.82,0,0,1,423.38,98l-1.1,0Z"/><path class="cls-3" d="M430.78,195.64l-2.49-.26-1.45,0c0,.94,1,2.64,1.93,2.69C429.9,198.16,430.75,196.6,430.78,195.64Z"/><path class="cls-3" d="M255.88,35.74c1.25.85,5.33.53,7,.25C261.21,35,258,35.62,255.88,35.74Z"/><path class="cls-3" d="M276.46,38.12c.17.25-.14.34.68.54a9.62,9.62,0,0,0,3.21-.12c-.26-.37.36-.34-.71-.59C279.52,37.92,276.86,37.78,276.46,38.12Z"/><path class="cls-3" d="M266.85,39c.23.2.06.17.43.34s.06.08.54.14l3.6-.09c-.57-.68-.34-.56-2.21-.62A6.06,6.06,0,0,0,266.85,39Z"/><path class="cls-3" d="M277.63,40.53c.36.42,0,.34.65.56a7.27,7.27,0,0,0,2.75,0c-.29-.53.17-.65-1.59-.68A5.11,5.11,0,0,0,277.63,40.53Z"/><path class="cls-3" d="M273.06,39.73c.31.4,0,.34.63.54l2.18.06c.82-.23.08,0,.48-.26-.14-.17.34-.39-1.5-.48A4.08,4.08,0,0,0,273.06,39.73Z"/><path class="cls-3" d="M197.77,42.6a3.47,3.47,0,0,0,2.95-.23c-.17-.2.4-.48-1.47-.37C198.28,42,198.14,42,197.77,42.6Z"/><path class="cls-3" d="M438.18,155.3c.42-1.19.4-2-.57-2.41C437.24,153.8,437.27,154.85,438.18,155.3Z"/><path class="cls-3" d="M271.56,37.52a4.56,4.56,0,0,0,3.29.06C274.17,37.07,271.67,36.93,271.56,37.52Z"/><path class="cls-3" d="M122.14,328.55V312.48h3.26v7.12l6.58-7.12h4.34l-6.07,6.27,6.38,9.8h-4.2L128,321l-2.61,2.67v4.87Zm16.08,0V312.48h3.23v16.07Zm6.29,0V312.48h4.88l2.89,11,2.83-11H160v16.07h-3V315.91l-3.17,12.64h-3.12l-3.15-12.64,0,12.64Zm18.74,0V312.48h11.9v2.72h-8.64v3.57h8v2.7h-8v4.36h9v2.72Zm18.59,0V315.2h-4.76v-2.72h12.76v2.72H185.1v13.35Zm9.24-5.21,3.18-.31a3.78,3.78,0,0,0,1.13,2.32,3.46,3.46,0,0,0,2.35.77,3.57,3.57,0,0,0,2.36-.68,1.93,1.93,0,0,0,.79-1.53,1.52,1.52,0,0,0-.34-1,2.78,2.78,0,0,0-1.16-.68c-.37-.14-1.25-.37-2.58-.71a8.89,8.89,0,0,1-3.66-1.58,4.36,4.36,0,0,1-1.47-3.26,4,4,0,0,1,.71-2.3,4.48,4.48,0,0,1,2-1.64,8.17,8.17,0,0,1,3.18-.54,6.64,6.64,0,0,1,4.53,1.33,4.72,4.72,0,0,1,1.59,3.57l-3.26.12a2.82,2.82,0,0,0-.88-1.79,3.17,3.17,0,0,0-2-.54,3.67,3.67,0,0,0-2.18.57,1.2,1.2,0,0,0-.51,1,1.14,1.14,0,0,0,.48,1,8.32,8.32,0,0,0,3,1.08,16.35,16.35,0,0,1,3.48,1.16,4.51,4.51,0,0,1,1.76,1.65,5,5,0,0,1-.11,5.13,4.39,4.39,0,0,1-2.19,1.78,8.83,8.83,0,0,1-3.48.6,7,7,0,0,1-4.68-1.39A6,6,0,0,1,191.08,323.34Zm15.82-10.86h3.26v8.7a18.75,18.75,0,0,0,.11,2.7,2.71,2.71,0,0,0,1,1.58,3.36,3.36,0,0,0,2.12.6,3.16,3.16,0,0,0,2-.57,2.07,2.07,0,0,0,.85-1.39,18.1,18.1,0,0,0,.15-2.72v-8.9h3.26v8.45a19.11,19.11,0,0,1-.29,4.08,4.4,4.4,0,0,1-1,2,5,5,0,0,1-1.87,1.31,10.87,10.87,0,0,1-6.58-.06,5.14,5.14,0,0,1-1.87-1.36,4.9,4.9,0,0,1-.91-1.79,20.64,20.64,0,0,1-.31-4.08Zm22.45,16.07V312.48h3.15l6.6,10.77V312.48h3v16.07h-3.26L232.36,318v10.57Zm15.54-7.93a10.51,10.51,0,0,1,.73-4.14,7.92,7.92,0,0,1,1.5-2.21,6.4,6.4,0,0,1,2.07-1.45,8.9,8.9,0,0,1,3.46-.62,7.56,7.56,0,0,1,5.7,2.21,9.88,9.88,0,0,1,0,12.22,7.54,7.54,0,0,1-5.67,2.21,7.66,7.66,0,0,1-5.7-2.18A8.35,8.35,0,0,1,244.89,320.62Zm3.34-.12a6,6,0,0,0,1.28,4.14,4.06,4.06,0,0,0,3.2,1.42,4,4,0,0,0,3.17-1.39,7.72,7.72,0,0,0,.06-8.33,4.14,4.14,0,0,0-3.23-1.36,4.21,4.21,0,0,0-3.26,1.36A6.29,6.29,0,0,0,248.23,320.5Zm24.83,8.05v-6.77l-5.89-9.3H271l3.8,6.35,3.69-6.35h3.74l-5.9,9.33v6.74Zm23.19,0h-3.52l-1.39-3.65h-6.43l-1.33,3.65h-3.46l6.24-16.07h3.43Zm-5.95-6.37-2.24-6-2.19,6Zm7.56,6.37V312.48h3.26v16.07Zm6.35-16.07h6.41a17.86,17.86,0,0,1,2.86.17,3.87,3.87,0,0,1,1.68.65,4,4,0,0,1,1.24,1.34,3.83,3.83,0,0,1,.49,1.87,3.76,3.76,0,0,1-.6,2.07,4,4,0,0,1-1.64,1.41,4.23,4.23,0,0,1,2.24,1.48,3.78,3.78,0,0,1,.79,2.41,4.91,4.91,0,0,1-.51,2.15,4.42,4.42,0,0,1-1.39,1.65,4.47,4.47,0,0,1-2.18.76c-.54.06-1.85.09-3.91.11h-5.48Zm3.26,2.67v3.71h2.1c1.28,0,2.07,0,2.35-.06a2.19,2.19,0,0,0,1.34-.56,1.75,1.75,0,0,0,.45-1.25,1.68,1.68,0,0,0-.4-1.22,1.85,1.85,0,0,0-1.22-.57c-.31,0-1.24-.05-2.77-.05Zm0,6.37v4.31h3a18.55,18.55,0,0,0,2.21-.08,1.9,1.9,0,0,0,1.64-2,2,2,0,0,0-1.36-2,11.84,11.84,0,0,0-2.89-.23Zm27.42,7H331.4L330,324.9h-6.46l-1.34,3.65h-3.43L325,312.48h3.43Zm-6-6.37-2.21-6-2.18,6Z"/></g></g></g></g></svg>